<?xml version="1.0" encoding="utf-8"?>
<!-- Generator: Adobe Illustrator 26.0.1, SVG Export Plug-In . SVG Version: 6.00 Build 0)  -->
<svg version="1.1" id="Layer_1" xmlns="http://www.w3.org/2000/svg" xmlns:xlink="http://www.w3.org/1999/xlink" x="0px" y="0px"
	 viewBox="0 0 1804.44 1984.25" style="enable-background:new 0 0 1804.44 1984.25;" xml:space="preserve">
<style type="text/css">
	.st0{fill:#2BB673;}
</style>
<path class="st0" d="M1147.68,1392.03l-258.1,447.02l-256.59-444.53c77.57,37.92,162.93,56.73,256.14,56.42
	C983.32,1450.65,1069.5,1431.01,1147.68,1392.03z"/>
<path class="st0" d="M475.1,1195.96c-115.76-115.76-173.35-254.58-172.79-416.5c0.53-161.91,58.16-300.18,172.79-414.81
	c114.61-114.61,253.15-172.52,415.64-173.62c162.47-1.12,301.57,56.19,417.33,171.95c114.61,114.61,171.37,253.15,170.26,415.64
	c-1.12,162.47-58.99,301.05-173.6,415.66c-114.63,114.63-252.93,172.22-414.83,172.77C727.98,1367.6,589.71,1310.56,475.1,1195.96z
	 M526,779.46c0.56,100.71,36.45,186.68,107.68,257.91c71.19,71.19,157.16,107.08,257.89,107.66
	c100.71,0.56,186.68-34.76,257.91-105.99c71.21-71.21,106.55-157.2,105.99-257.91c-0.58-100.73-36.47-186.7-107.66-257.89
	c-72.36-72.36-158.59-108.52-258.75-108.52s-185.85,35.63-257.06,106.85C560.78,592.8,525.43,678.73,526,779.46z"/>
<g>
	<path class="st0" d="M890.43,963.41c-76.63,0-153.27,0-229.9,0c-6.78,0-13.57,0.09-20.35,0.06c-6.31-0.03-10.37-3.68-10.43-9.2
		c-0.06-5.66,4.24-9.61,10.49-9.61c10.01-0.01,20.02-0.09,30.03,0.04c2.47,0.03,3.33-0.38,3.31-3.16
		c-0.15-18.91-0.08-37.82-0.08-56.73c0-47.93-0.01-95.85-0.01-143.78c0-6.7,3.99-10.26,11.14-10.25c34.7,0.04,69.4-0.02,104.1,0.07
		c2.84,0.01,3.81-0.64,3.81-3.67c-0.09-52.38-0.07-104.77-0.07-157.15c0-1.11-0.03-2.23,0.01-3.34c0.23-6.51,3.74-10.06,10.29-10.08
		c16.46-0.06,32.92-0.01,49.39-0.01c35.14,0.01,70.29,0.01,105.43,0.02c6.67,0,13.35-0.04,20.02-0.02
		c7.09,0.02,10.56,3.58,10.55,10.73c-0.01,41.49,0.03,82.98-0.08,124.46c-0.01,3.33,0.93,5,4.08,6.46
		c35.65,16.6,71.18,33.44,106.81,50.07c5.52,2.58,7.89,6.24,7.88,12.45c-0.15,60.06-0.07,120.12-0.15,180.19
		c0,2.88,0.62,3.81,3.63,3.76c10.12-0.19,20.24-0.13,30.36-0.05c6.69,0.05,10.87,4.6,10.13,10.81c-0.51,4.27-3.85,7.57-8.15,7.92
		c-1.66,0.14-3.33,0.09-5,0.09c-82.42,0-164.84,0-247.25,0C890.43,963.46,890.43,963.44,890.43,963.41z M811.29,759.82
		c-0.01,0-0.01,0-0.02,0c0,60.49,0.01,120.98-0.05,181.47c0,2.51,0.53,3.45,3.26,3.43c13.56-0.14,27.13-0.14,40.7-0.01
		c2.84,0.03,3.53-0.91,3.51-3.62c-0.11-17.79-0.07-35.58-0.05-53.38c0.01-7.53,3.53-11.07,11.03-11.09
		c13.57-0.03,27.13-0.01,40.7-0.02c8.18,0,11.64,3.37,11.65,11.45c0.02,17.57,0.07,35.14-0.06,52.7c-0.02,2.96,0.63,4,3.8,3.96
		c13.12-0.19,26.25-0.2,39.36-0.01c3.31,0.05,4.25-0.74,4.25-4.18c-0.1-119.55-0.08-239.09-0.08-358.64c0-1-0.11-2.02,0.02-3
		c0.38-2.79-0.74-3.56-3.52-3.51c-10.34,0.16-20.68,0.05-31.02,0.05c-39.92-0.01-79.84,0.01-119.76-0.08
		c-2.84-0.01-3.85,0.65-3.8,3.67c0.18,11.34,0.07,22.68,0.07,34.02C811.29,661.97,811.29,710.89,811.29,759.82z M692.3,846.82
		c0,31.47,0.01,62.95-0.03,94.42c0,2.12,0.02,3.47,2.9,3.46c31.47-0.1,62.95-0.09,94.42-0.02c2.45,0.01,2.94-0.92,2.91-3.12
		c-0.1-7.34-0.04-14.68-0.04-22.02c0-55.27-0.03-110.55,0.09-165.82c0.01-3.51-1.1-4.18-4.33-4.17c-30.7,0.11-61.39,0.11-92.09,0.01
		c-2.98-0.01-3.92,0.7-3.91,3.84C692.36,784.54,692.31,815.68,692.3,846.82z M988.16,831.02c0,1,0,2,0,3
		c0,35.58,0.04,71.15-0.08,106.73c-0.01,3.27,0.88,4.02,4.05,3.96c10.56-0.21,21.12-0.08,31.69-0.07c20.23,0,40.47-0.05,60.7,0.07
		c2.78,0.02,3.63-0.76,3.51-3.54c-0.22-5.1-0.06-10.22-0.06-15.34c0-52.81-0.02-105.63,0.05-158.44c0-2.44-0.66-3.67-2.95-4.72
		c-17.03-7.89-33.97-15.95-50.95-23.95c-14.26-6.72-28.53-13.42-42.77-20.18c-2.04-0.97-3.34-1.63-3.26,1.75
		c0.19,8,0.06,16.01,0.06,24.01C988.16,773.21,988.16,802.12,988.16,831.02z M903.17,920.11c-0.01,0-0.01,0-0.02,0
		c0-7.32-0.03-14.64,0.02-21.96c0.01-1.64-0.09-2.73-2.22-2.7c-6.99,0.1-13.98,0.06-20.97,0.03c-1.6-0.01-2.45,0.47-2.44,2.26
		c0.03,14.76,0.05,29.52-0.05,44.27c-0.02,2.39,1.06,2.67,3,2.65c6.55-0.08,13.1-0.15,19.64,0.03c2.63,0.07,3.13-0.92,3.08-3.28
		C903.08,934.32,903.17,927.21,903.17,920.11z"/>
	<path class="st0" d="M987.25,1001.44c-35.36,0-70.72,0.01-106.08-0.01c-6.13,0-10.09-3.56-10.2-9.02c-0.12-5.7,3.96-9.69,9.93-9.7
		c22.57-0.03,45.14-0.06,67.71-0.07c48.15-0.01,96.29-0.01,144.44,0c6.82,0,10.96,3.5,11.03,9.29c0.06,5.18-3.57,9.21-8.75,9.45
		c-3.55,0.17-7.11,0.06-10.67,0.06C1052.19,1001.44,1019.72,1001.44,987.25,1001.44z"/>
	<path class="st0" d="M720.74,1001.41c-11.66,0-23.32,0.05-34.97-0.03c-4.18-0.03-7.32-2.39-8.67-6.1
		c-1.25-3.44-0.27-7.61,2.47-10.09c1.87-1.69,4.11-2.57,6.67-2.57c23.1,0.01,46.19-0.04,69.29,0.03c5.55,0.02,9.53,4.18,9.49,9.49
		c-0.04,5.42-3.93,9.24-9.63,9.27c-11.55,0.05-23.1,0.02-34.65,0.02C720.74,1001.43,720.74,1001.42,720.74,1001.41z"/>
	<path class="st0" d="M836.34,1001.41c-9.93,1.08-13.58-8.36-10.12-14.13c2.83-4.73,11.93-6.44,17.01-3.06
		c4.65,3.09,5.61,9.29,2.14,13.73C842.99,1000.98,839.77,1001.74,836.34,1001.41z"/>
	<path class="st0" d="M799.17,1001.41c-3.92,0.36-7.26-0.69-9.49-4.17c-3.5-5.45-0.9-12.36,5.33-14.14
		c2.73-0.78,5.53-0.74,8.24-0.16c4.89,1.05,7.79,5.16,7.35,10.03c-0.43,4.86-4.01,8.19-9.09,8.44
		C800.74,1001.44,799.96,1001.41,799.17,1001.41z"/>
	<path class="st0" d="M932.1,656.64c-8.01-0.03-12.81-5.85-10.39-12.61c1.43-4.01,4.9-6.21,9.95-6.3c5.81-0.1,9.34,1.88,11.03,6.19
		c1.39,3.55,0.39,7.66-2.53,10.31C938.15,656.05,936.13,656.65,932.1,656.64z"/>
	<path class="st0" d="M889.83,656.63c-2.82,0.04-5.48-0.32-7.77-2.27c-4.98-4.24-4.15-12.29,1.66-15.44
		c3.73-2.03,10.85-1.43,13.89,1.16c3.06,2.61,4.1,6.72,2.65,10.55C898.77,654.62,895.27,656.63,889.83,656.63z"/>
	<path class="st0" d="M889.63,689.69c-4.44,0.28-8.16-1.25-10.04-5.72c-1.48-3.53-1.01-6.96,1.58-9.92
		c3.01-3.44,10.41-4.44,14.83-2.04c3.93,2.13,5.77,6.68,4.48,11.07C899.19,687.49,895.65,689.69,889.63,689.69z"/>
	<path class="st0" d="M890.04,604.79c7.89-0.94,13.35,6.85,9.69,13.84c-2.25,4.29-8.03,6.28-14.03,4.6
		c-4.65-1.3-7.38-5.51-6.77-10.44C879.56,607.66,883.59,604.76,890.04,604.79z"/>
	<path class="st0" d="M932.22,604.8c9.13-1.01,13.24,8,9.85,14c-2.6,4.61-10.28,6.55-15.74,3.82c-4.69-2.34-6.5-7.99-4.1-12.78
		C924,606.28,926.94,604.79,932.22,604.8z"/>
	<path class="st0" d="M847.38,821.91c-7.96,0.01-12.85-5.88-10.42-12.54c1.86-5.08,7.31-7.47,13.9-6.1
		c4.91,1.03,7.94,5.1,7.58,10.18C858.07,818.82,854.03,821.9,847.38,821.91z"/>
	<path class="st0" d="M932.65,836.27c4.34-0.36,8.01,1.32,9.96,5.94c1.45,3.43,0.58,7.34-2.17,10.1c-3.35,3.36-11.02,3.9-15.21,1.08
		c-3.61-2.43-5.06-7.09-3.47-11.15C923.38,838.11,926.65,836.24,932.65,836.27z"/>
	<path class="st0" d="M932.12,755.8c-5.52,0-8.78-1.91-10.36-6.07c-1.45-3.83-0.41-7.83,2.75-10.53c2.86-2.45,10-3.15,13.61-1.21
		c3.54,1.91,5.27,4.97,5.09,9.01C942.97,752.58,938.9,755.79,932.12,755.8z"/>
	<path class="st0" d="M847.5,722.88c-5.38-0.01-8.9-2.04-10.44-6.1c-1.45-3.8-0.66-7.19,2.15-10.09c2.69-2.77,9.72-3.72,13.78-1.93
		c3.62,1.59,5.74,5.24,5.46,9.4C858.09,719.52,853.84,722.9,847.5,722.88z"/>
	<path class="st0" d="M932.39,821.9c-9,0.9-12.87-7.23-10.65-12.73c1.68-4.16,5.25-6.14,11.44-6.06c4.85,0.06,8.31,2.43,9.66,6.63
		c1.23,3.82-0.07,7.75-3.35,10.36C937.33,821.81,934.83,821.98,932.39,821.9z"/>
	<path class="st0" d="M932.19,770.13c10.09-0.73,12.85,8.64,10.04,13.75c-2.7,4.92-10.64,6.87-16.19,3.82
		c-4.68-2.57-6.32-8.2-3.65-12.88C924.57,770.98,928.12,769.86,932.19,770.13z"/>
	<path class="st0" d="M847.91,836.26c3.75-0.34,7.23,0.89,9.4,4.74c1.77,3.16,1.68,6.37-0.15,9.48c-2.59,4.41-9.81,6.15-15.19,3.73
		c-4.46-2.01-6.65-7.07-5.05-11.66C838.42,838.25,841.78,836.24,847.91,836.26z"/>
	<path class="st0" d="M847.67,770.19c8.1-1.01,12.9,6.9,9.98,13.29c-2.24,4.91-9.92,7.18-15.67,4.63
		c-4.78-2.12-6.96-7.78-4.71-12.56C839.36,771.14,843.13,769.79,847.67,770.19z"/>
	<path class="st0" d="M889.97,770.09c9.52-0.62,13.12,8.42,9.67,14.1c-2.37,3.92-6.03,4.97-10.25,4.8
		c-3.92-0.16-7.57-1.12-9.47-4.99C876.7,777.46,880.69,769.38,889.97,770.09z"/>
	<path class="st0" d="M890.24,737.01c4.19-0.41,7.76,1.27,9.77,5.4c1.69,3.47,1.13,6.91-1.28,9.98c-2.65,3.37-9.6,4.72-14.13,2.75
		c-4.15-1.8-6.25-5.61-5.66-10.24C879.59,739.9,883.59,737.02,890.24,737.01z"/>
	<path class="st0" d="M932.58,704.01c5.42,0.06,8.58,1.84,10.07,5.97c1.36,3.76,0.62,7.22-2.23,10.1
		c-3.56,3.6-12.26,3.79-16.03,0.41c-3.03-2.72-4.05-6.86-2.61-10.59C923.39,705.73,926.67,703.94,932.58,704.01z"/>
	<path class="st0" d="M932.41,670.89c8.81-0.85,13.12,7.93,9.59,14.22c-3.04,5.41-10.77,5.5-15.51,3.65
		c-4.43-1.73-6.44-7.15-4.76-11.75C923.27,672.82,926.67,670.87,932.41,670.89z"/>
	<path class="st0" d="M890.31,821.79c-6.88,0.43-11.22-3.16-11.43-8.74c-0.22-5.87,3.72-9.79,9.95-9.96
		c3.51-0.1,6.92,0.15,9.47,2.97c2.39,2.64,3.31,5.74,2.16,9.2c-1.07,3.25-3.09,5.59-6.69,6.11
		C892.36,821.58,890.93,821.71,890.31,821.79z"/>
	<path class="st0" d="M847.63,623.58c-4.84,0.23-8.54-1.34-10.47-5.76c-1.62-3.71-0.89-7.18,1.86-10.14
		c2.82-3.02,9.32-4.02,13.71-2.21c3.71,1.53,5.91,5.06,5.74,9.24C858.25,620.19,854.04,623.56,847.63,623.58z"/>
	<path class="st0" d="M889.93,703.98c7.73,0.16,12.32,5.08,10.67,11.58c-0.95,3.76-3.38,6.09-7.21,6.95
		c-2.09,0.47-4.16,0.47-6.26,0.13c-5.47-0.89-8.65-4.81-8.25-10.19c0.36-4.86,4.14-8.26,9.39-8.46
		C888.82,703.96,889.38,703.98,889.93,703.98z"/>
	<path class="st0" d="M846.97,755.81c-4.08,0.17-7.64-1.2-9.62-5.31c-1.77-3.66-1.2-7.1,1.39-10.21c2.78-3.34,9.11-4.53,13.86-2.62
		c3.89,1.56,6.11,5.15,5.86,9.48C858.15,752.61,853.91,755.88,846.97,755.81z"/>
	<path class="st0" d="M847.16,689.69c-2.74,0.2-5.52-0.32-7.74-2.51c-2.54-2.51-3.78-5.53-2.71-9.04c1.14-3.77,3.9-6.22,7.66-7.08
		c2.21-0.5,4.61-0.38,6.9,0.31c5.49,1.67,7.57,4.89,6.86,10.76c-0.54,4.47-4.2,7.41-9.4,7.55
		C848.29,689.7,847.85,689.69,847.16,689.69z"/>
	<path class="st0" d="M888.91,855.09c-6.59-0.05-10.21-3.87-9.89-10.88c0.1-2.22,1.33-3.71,2.6-5.2c2.78-3.26,11.07-3.83,15.17-1.14
		c3.94,2.58,5.27,7.64,3.07,12C897.73,854.1,893.96,855.23,888.91,855.09z"/>
	<path class="st0" d="M847.52,637.67c4.2-0.25,7.33,1.5,9.47,5.04c3.43,5.67-0.33,12.75-6.96,13.53c-5.18,0.61-9.77,0.34-12.43-5.06
		c-2.85-5.79,0.25-12,6.62-13.14C845.31,637.85,846.42,637.79,847.52,637.67z"/>
	<path class="st0" d="M764.2,821.91c-8,0-12.69-5.37-10.64-12.15c1.57-5.19,7.29-7.87,13.96-6.56c5.04,0.99,8.14,5.26,7.61,10.48
		C774.61,818.94,770.66,821.91,764.2,821.91z"/>
	<path class="st0" d="M722.22,888.03c-7.4-0.02-11.47-3.62-11.41-9.48c0.06-5.79,4.21-9.24,10.98-9.35
		c4.47-0.08,8.14,1.23,10.19,5.42c1.78,3.65,1.13,7.14-1.42,10.24C728.22,887.72,725.01,888.29,722.22,888.03z"/>
	<path class="st0" d="M721.79,788.96c-5.41-0.01-8.79-2-10.39-6.13c-1.4-3.61-0.45-7.57,2.48-10.33c3.18-3,11.12-3.4,15.02-0.77
		c3.61,2.43,4.97,7.31,3.22,11.52C730.54,787.06,727.09,788.97,721.79,788.96z"/>
	<path class="st0" d="M721.66,836.28c8.69-0.91,13.03,6.83,10.61,12.74c-1.54,3.76-4.48,5.73-8.44,6.03
		c-4.7,0.36-9.19-0.09-11.82-4.85c-1.97-3.57-1.62-7.04,0.72-10.3C714.97,836.75,718.22,836.01,721.66,836.28z"/>
	<path class="st0" d="M764.67,770.15c3.84-0.35,7.39,0.99,9.45,4.8c1.74,3.23,1.56,6.64-0.48,9.8c-2.72,4.2-9.76,5.68-15.03,3.2
		c-4.41-2.07-6.46-6.69-5.03-11.33C754.94,772.21,758.42,770.1,764.67,770.15z"/>
	<path class="st0" d="M721.52,821.89c-4.14,0.38-7.6-1.1-9.64-4.91c-1.66-3.11-1.55-6.38,0.37-9.49c2.9-4.69,11.3-6.12,16.43-2.78
		c4.53,2.95,5.58,8.91,2.36,13.43C728.73,821.41,725.37,822.12,721.52,821.89z"/>
	<path class="st0" d="M721.68,902.41c7.14,0.02,11.35,3.72,11.25,9.48c-0.1,5.72-4.41,9.37-11.03,9.32
		c-5.54-0.04-8.86-1.95-10.46-6.02c-1.42-3.63-0.51-7.6,2.37-10.37C716.17,902.54,719.08,902.22,721.68,902.41z"/>
	<path class="st0" d="M764.59,836.26c3.82-0.31,7.4,0.89,9.45,4.77c1.71,3.22,1.73,6.59-0.35,9.79c-2.72,4.17-9.68,5.72-15.03,3.33
		c-4.39-1.95-6.5-6.65-5.09-11.31C754.9,838.39,758.35,836.26,764.59,836.26z"/>
	<path class="st0" d="M764.34,921.21c-7.99,0.02-12.64-5.2-10.78-12.11c1.44-5.36,6.71-7.81,14.17-6.59
		c4.6,0.75,7.74,4.94,7.44,9.93C774.84,917.87,770.74,921.19,764.34,921.21z"/>
	<path class="st0" d="M764.23,888.02c-4.59,0.23-8.34-1.11-10.28-5.64c-1.61-3.76-0.83-7.58,2-10.38c3.08-3.06,9.65-3.89,14.05-1.78
		c3.76,1.8,5.64,5.46,5.08,9.9C774.46,885.15,770.52,888.01,764.23,888.02z"/>
	<path class="st0" d="M1038.05,821.91c-7.33,0-14.65,0.03-21.98,0c-6.28-0.03-10.31-3.68-10.29-9.25c0.02-5.74,3.86-9.5,10.06-9.53
		c14.87-0.07,29.75-0.06,44.63-0.01c5.9,0.02,10.24,4.27,10.11,9.65c-0.13,5.29-4.32,9.09-10.22,9.13
		C1052.92,821.94,1045.49,821.9,1038.05,821.91z"/>
	<path class="st0" d="M1038.2,902.4c7.45,0,14.9-0.04,22.36,0.01c5.84,0.04,10.02,3.99,10.02,9.33c0,5.2-4.06,9.38-9.69,9.42
		c-15.35,0.12-30.7,0.1-46.04-0.01c-5.31-0.04-9.09-4.27-9.01-9.57c0.07-5.26,3.7-9.02,9.01-9.09c7.78-0.09,15.57-0.02,23.36-0.02
		C1038.2,902.45,1038.2,902.43,1038.2,902.4z"/>
	<path class="st0" d="M1038.12,788.94c-7.66,0-15.32,0.11-22.98-0.04c-4.79-0.1-8.54-3.35-9.28-7.57c-0.82-4.6,1.46-8.77,5.68-10.54
		c1.17-0.49,2.35-0.62,3.57-0.62c15.32-0.03,30.64-0.09,45.96-0.04c5.31,0.02,9.37,4.08,9.49,9.18c0.12,5.13-3.97,9.5-9.46,9.62
		c-7.66,0.17-15.32,0.04-22.98,0.04C1038.12,788.96,1038.12,788.95,1038.12,788.94z"/>
	<path class="st0" d="M1037.92,888.02c-7.34,0-14.67,0.04-22.01-0.01c-6.21-0.04-10.2-3.79-10.16-9.42
		c0.04-5.55,4.18-9.36,10.31-9.36c15.1,0,30.2,0.05,45.29,0.08c4.29,0.01,9.01,4.6,9.21,8.96c0.23,4.95-3.62,9.51-8.63,9.63
		c-8,0.19-16,0.05-24.01,0.05C1037.92,887.98,1037.92,888,1037.92,888.02z"/>
	<path class="st0" d="M1037.64,855.1c-7.32,0-14.65,0.09-21.97-0.03c-6.19-0.1-10.2-4.31-9.91-10.09c0.24-4.66,3.81-8.6,8.49-8.64
		c15.88-0.13,31.76-0.14,47.63,0.01c4.97,0.05,8.01,3.62,8.41,8.98c0.35,4.69-2.41,8.45-7.4,9.04c-7.27,0.87-14.61,0.6-21.93,0.63
		c-1.11,0-2.21-0.12-3.32-0.19C1037.64,854.91,1037.64,855.01,1037.64,855.1z"/>
</g>
</svg>
