<?xml version="1.0" encoding="utf-8"?>
<!-- Generator: Adobe Illustrator 26.0.1, SVG Export Plug-In . SVG Version: 6.00 Build 0)  -->
<svg version="1.1" id="Layer_1" xmlns="http://www.w3.org/2000/svg" xmlns:xlink="http://www.w3.org/1999/xlink" x="0px" y="0px"
	 viewBox="0 0 1804.44 1984.25" style="enable-background:new 0 0 1804.44 1984.25;" xml:space="preserve">
<style type="text/css">
	.st0{fill:#00AEEF;}
</style>
<path class="st0" d="M1147.68,1392.03l-258.1,447.02l-256.59-444.53c77.57,37.92,162.93,56.73,256.14,56.42
	C983.32,1450.65,1069.5,1431.01,1147.68,1392.03z"/>
<path class="st0" d="M475.1,1195.96c-115.76-115.76-173.35-254.58-172.79-416.5c0.53-161.91,58.16-300.18,172.79-414.81
	c114.61-114.61,253.15-172.52,415.64-173.62c162.47-1.12,301.57,56.19,417.33,171.95c114.61,114.61,171.37,253.15,170.26,415.64
	c-1.12,162.47-58.99,301.05-173.6,415.66c-114.63,114.63-252.93,172.22-414.83,172.77C727.98,1367.6,589.71,1310.56,475.1,1195.96z
	 M526,779.46c0.56,100.71,36.45,186.68,107.68,257.91c71.19,71.19,157.16,107.08,257.89,107.66
	c100.71,0.56,186.68-34.76,257.91-105.99c71.21-71.21,106.55-157.2,105.99-257.91c-0.58-100.73-36.47-186.7-107.66-257.89
	c-72.36-72.36-158.59-108.52-258.75-108.52s-185.85,35.63-257.06,106.85C560.78,592.8,525.43,678.73,526,779.46z"/>
<g>
	<path class="st0" d="M674.79,757.51c8.81-9.55,17.26-18.7,25.71-27.85c15.84-17.16,31.68-34.31,47.47-51.51
		c1.07-1.17,1.54-0.99,2.5,0.05c12.14,13.24,24.33,26.44,36.53,39.63c0.62,0.67,0.74,1.25,0.62,2.14c-0.46,3.43,1.68,5.87,5.15,5.85
		c1.17-0.01,1.95,0.35,2.73,1.2c9.22,10.05,18.47,20.07,27.82,30.21c-0.79,0.42-1.53,0.26-2.23,0.26c-5.64,0.01-11.27,0-16.91,0
		c-4.44,0-6.37,1.96-6.39,6.44c-0.01,1.63-0.02,3.26,0.01,4.89c0.07,4.08,1.95,5.97,6.01,5.98c6.7,0.02,13.4,0.06,20.11-0.03
		c1.59-0.02,1.99,0.44,1.99,1.99c-0.06,26.37-0.07,52.74-0.07,79.1c0,34.07,0.03,68.15,0.04,102.22c0,0.56-0.07,1.14,0.01,1.69
		c0.18,1.32-0.35,1.67-1.66,1.67c-15.85-0.04-31.69,0.08-47.54-0.09c-5.07-0.06-10.14-0.27-15.2-0.17
		c-28.87,0.55-57.74,0.05-86.61,0.29c-2.05,0.02-2.4-0.62-2.4-2.48c0.06-46.72,0.07-93.44,0.07-140.16c0-13.97,0.01-27.93-0.07-41.9
		c-0.01-1.73,0.45-2.19,2.19-2.16c6.57,0.11,13.15,0.06,19.72,0.03c4.21-0.02,6.02-1.88,6.02-6.09c0-1.75,0.01-3.51,0-5.26
		c-0.01-3.95-1.87-5.87-5.86-5.93c-4.7-0.06-9.39-0.03-14.09-0.03C678.71,757.51,676.98,757.51,674.79,757.51z M760.75,725
		c-2.94,0-5.88,0.05-8.81-0.02c-1.25-0.03-1.75,0.25-1.73,1.63c0.08,5.56,0.06,11.13,0,16.69c-0.01,1.14,0.32,1.43,1.47,1.49
		c6.05,0.34,12.08-0.08,18.12,0c1.23,0.02,1.42-0.46,1.41-1.53c-0.08-5.62-0.14-11.24-0.12-16.86c0.01-1.23-0.46-1.44-1.53-1.42
		C766.63,725.04,763.69,725,760.75,725z M737.82,744.77c3,0,6-0.04,9,0.02c1.05,0.02,1.35-0.27,1.34-1.33
		c-0.05-5.69-0.06-11.38,0-17.06c0.01-1.25-0.49-1.42-1.54-1.41c-5.94,0.03-11.87,0.04-17.81-0.01c-1.12-0.01-1.53,0.3-1.51,1.47
		c0.05,5.62,0.05,11.24,0.01,16.87c-0.01,1.16,0.38,1.51,1.51,1.48C731.82,744.73,734.82,744.77,737.82,744.77z M760.76,746.87
		c-3.12,0-6.24,0.02-9.36-0.01c-0.86-0.01-1.19,0.2-1.19,1.15c0.05,5.44,0.03,10.88,0.01,16.31c0,0.9,0.18,1.37,1.23,1.36
		c6.13-0.04,12.25-0.04,18.38,0c1.01,0.01,1.26-0.38,1.25-1.32c-0.03-5.43-0.03-10.87,0-16.3c0-0.86-0.22-1.22-1.15-1.2
		C766.88,746.91,763.82,746.88,760.76,746.87z M737.72,765.67c3,0,6-0.03,9.01,0.02c1,0.02,1.45-0.2,1.44-1.33
		c-0.05-5.44-0.04-10.88-0.01-16.32c0.01-0.89-0.28-1.18-1.18-1.18c-6.13,0.03-12.26,0.04-18.39,0c-1-0.01-1.28,0.35-1.27,1.31
		c0.03,5.38,0.03,10.76-0.01,16.14c-0.01,1.07,0.34,1.41,1.4,1.39C731.71,765.63,734.72,765.67,737.72,765.67z M731.85,894.01
		c0-2.19-0.03-4.38,0.01-6.57c0.02-1.01-0.26-1.45-1.38-1.43c-3.75,0.06-7.51,0.05-11.26,0c-1.08-0.02-1.41,0.38-1.4,1.41
		c0.04,4.32,0.04,8.64,0,12.95c-0.01,1.04,0.3,1.41,1.38,1.4c3.75-0.06,7.51-0.06,11.26,0c1.08,0.02,1.43-0.33,1.41-1.38
		C731.81,898.27,731.85,896.14,731.85,894.01z M731.86,873.95c0-2.13-0.02-4.25,0.01-6.38c0.02-0.89-0.17-1.41-1.22-1.4
		c-3.88,0.04-7.75,0.04-11.63,0.02c-0.87,0-1.21,0.3-1.2,1.21c0.03,4.38,0.01,8.75-0.01,13.13c0,0.86,0.13,1.39,1.22,1.37
		c3.88-0.06,7.76-0.06,11.63-0.01c1.08,0.01,1.23-0.51,1.21-1.38C731.84,878.33,731.86,876.14,731.86,873.95z M765.93,873.85
		c0,2.19,0.02,4.39-0.01,6.58c-0.01,0.96,0.17,1.5,1.33,1.48c3.76-0.06,7.52-0.05,11.27-0.01c0.93,0.01,1.35-0.22,1.34-1.25
		c-0.05-4.38-0.05-8.76-0.03-13.14c0-0.95-0.29-1.33-1.3-1.31c-3.76,0.05-7.51,0.04-11.27,0c-1.1-0.01-1.39,0.44-1.36,1.47
		C765.97,869.72,765.92,871.79,765.93,873.85z M779.82,894.02c0,0,0.01,0,0.01,0c0-2.19-0.03-4.39,0.01-6.58
		c0.02-1.02-0.27-1.45-1.38-1.43c-3.69,0.06-7.39,0.05-11.09,0c-0.99-0.01-1.49,0.21-1.48,1.34c0.05,4.38,0.04,8.77,0.01,13.15
		c-0.01,0.99,0.38,1.27,1.34,1.26c3.82-0.05,7.64-0.05,11.46,0c0.93,0.01,1.15-0.28,1.12-1.18
		C779.77,898.4,779.82,896.21,779.82,894.02z M763.9,894c0-2.19-0.05-4.39,0.02-6.58c0.03-1.06-0.31-1.43-1.38-1.42
		c-3.44,0.05-6.89,0.04-10.33,0.01c-0.82-0.01-1.3,0.16-1.29,1.11c0.02,4.51,0.02,9.01,0,13.52c0,0.77,0.25,1.12,1.09,1.11
		c3.57-0.03,7.14-0.05,10.71,0.01c1.08,0.02,1.21-0.51,1.2-1.38C763.88,898.26,763.9,896.13,763.9,894z M763.9,874.09
		c0-1.94-0.15-3.89,0.04-5.8c0.19-1.84-0.69-2.4-2.2-2.24c-3.11,0.32-6.22,0.04-9.33,0.13c-1.11,0.03-1.55,0.34-1.54,1.5
		c0.05,4.3,0.04,8.6,0,12.9c-0.01,0.93,0.22,1.35,1.25,1.33c3.5-0.05,7-0.06,10.49,0.01c1.15,0.02,1.32-0.48,1.29-1.44
		C763.87,878.34,763.9,876.22,763.9,874.09z M733.87,874.03C733.87,874.03,733.86,874.03,733.87,874.03
		c-0.01,2.19,0.01,4.37-0.02,6.56c-0.01,0.78,0.09,1.32,1.09,1.31c3.62-0.04,7.25-0.04,10.87-0.02c0.81,0,1.16-0.37,1.14-1.11
		c-0.06-4.42-0.16-8.83-0.2-13.25c-0.01-0.93-0.26-1.35-1.28-1.34c-3.44,0.05-6.87,0.05-10.31,0.01c-1.11-0.01-1.35,0.46-1.32,1.47
		C733.91,869.78,733.87,871.91,733.87,874.03z M717.81,910.8C717.82,910.8,717.82,910.8,717.81,910.8c0.01,1.87,0.03,3.75,0,5.62
		c-0.01,0.88,0.16,1.41,1.22,1.39c3.87-0.05,7.75-0.04,11.62-0.03c0.85,0,1.23-0.26,1.22-1.19c-0.04-3.87-0.04-7.75-0.02-11.62
		c0.01-0.91-0.38-1.21-1.23-1.2c-3.87,0.01-7.75,0.02-11.62-0.01c-0.89-0.01-1.22,0.37-1.2,1.23
		C717.84,906.94,717.81,908.87,717.81,910.8z M746.75,894C746.76,894,746.76,894,746.75,894c0.01-2.19,0-4.38,0.01-6.57
		c0.01-0.84-0.08-1.43-1.2-1.41c-3.51,0.06-7.01,0.05-10.52,0.01c-0.92-0.01-1.21,0.34-1.2,1.2c0.02,4.45,0.03,8.89,0,13.34
		c-0.01,0.88,0.29,1.21,1.2,1.2c3.51-0.04,7.02-0.04,10.52,0c0.9,0.01,1.21-0.3,1.2-1.19C746.73,898.39,746.75,896.2,746.75,894z
		 M724.82,864.19c1.94,0,3.88-0.03,5.81,0.01c0.87,0.02,1.24-0.26,1.23-1.17c-0.03-3.87-0.03-7.75,0-11.62
		c0.01-0.91-0.33-1.19-1.21-1.18c-3.87,0.03-7.75,0.03-11.62,0c-0.9-0.01-1.21,0.3-1.2,1.19c0.03,3.87,0.04,7.75-0.01,11.62
		c-0.01,0.92,0.3,1.19,1.18,1.16C720.94,864.16,722.88,864.19,724.82,864.19z M779.84,910.89c-0.01,0-0.01,0-0.02,0
		c0-1.94-0.04-3.87,0.02-5.81c0.03-0.98-0.36-1.35-1.3-1.34c-3.81,0.03-7.62,0.05-11.43,0.04c-0.9,0-1.19,0.38-1.19,1.24
		c0.02,3.81,0.02,7.62-0.02,11.42c-0.01,1.04,0.34,1.4,1.41,1.38c3.75-0.06,7.49-0.05,11.24-0.01c0.98,0.01,1.33-0.35,1.31-1.31
		C779.81,914.64,779.84,912.77,779.84,910.89z M724.79,848.08c1.94,0,3.88-0.02,5.81,0.01c0.82,0.01,1.26-0.18,1.25-1.14
		c-0.04-3.75-0.03-7.5-0.01-11.25c0.01-0.85-0.23-1.24-1.17-1.23c-3.88,0.04-7.75,0.05-11.63,0c-1.02-0.01-1.26,0.39-1.25,1.33
		c0.05,3.63,0.06,7.25,0.01,10.88c-0.02,1.04,0.24,1.46,1.35,1.41C721.04,848.02,722.92,848.08,724.79,848.08z M772.93,850.25
		c-1.93,0-3.87,0.03-5.8-0.01c-0.88-0.02-1.22,0.28-1.21,1.18c0.03,3.8,0.05,7.6,0,11.39c-0.02,1.23,0.52,1.42,1.58,1.41
		c3.63-0.06,7.25-0.06,10.88,0c1.15,0.02,1.51-0.33,1.49-1.48c-0.06-3.69-0.06-7.38,0.01-11.07c0.02-1.19-0.4-1.5-1.52-1.45
		C776.54,850.31,774.73,850.25,772.93,850.25z M724.84,933.38c1.82,0,3.64-0.09,5.45,0.03c1.29,0.08,1.61-0.43,1.59-1.6
		c-0.05-3.5-0.06-7.01,0-10.52c0.02-1.18-0.41-1.49-1.53-1.47c-3.63,0.06-7.26,0.08-10.89-0.01c-1.41-0.04-1.68,0.55-1.66,1.76
		c0.06,3.5,0.11,7.01,0.02,10.51c-0.03,1.18,0.42,1.34,1.39,1.31C721.08,933.34,722.96,933.38,724.84,933.38z M772.93,834.5
		c-1.82,0-3.64,0.09-5.45-0.03c-1.32-0.09-1.59,0.48-1.57,1.62c0.04,3.44,0.07,6.89-0.01,10.34c-0.03,1.32,0.4,1.71,1.71,1.68
		c3.24-0.07,6.5-0.09,9.74,0.04c2.41,0.1,2.71,0.03,2.69-2.27c-0.02-3.36-0.19-6.73-0.19-10.09c0-1.14-0.48-1.35-1.47-1.32
		C776.56,834.54,774.75,834.5,772.93,834.5z M772.89,933.38c1.82,0,3.63-0.05,5.45,0.02c1.05,0.04,1.55-0.12,1.51-1.39
		c-0.09-3.56-0.06-7.13,0.01-10.69c0.02-1.14-0.34-1.52-1.49-1.5c-3.63,0.06-7.26,0.06-10.89,0c-1.13-0.02-1.59,0.32-1.58,1.46
		c0.03,3.63,0.05,7.26,0,10.89c-0.02,1.06,0.46,1.25,1.36,1.23C769.13,933.35,771.01,933.38,772.89,933.38z M763.9,910.8
		c0-1.81-0.08-3.63,0.03-5.43c0.07-1.24-0.33-1.63-1.56-1.61c-3.31,0.07-6.62,0.09-9.92-0.01c-1.33-0.04-1.56,0.51-1.54,1.65
		c0.04,3.68,0.02,7.37-0.03,11.05c-0.01,0.93,0.21,1.38,1.23,1.36c3.56-0.04,7.12-0.06,10.67-0.01c0.95,0.01,1.16-0.35,1.14-1.21
		C763.87,914.67,763.9,912.73,763.9,910.8z M763.94,857.58c-0.01,0-0.03,0-0.04,0c0-2-0.03-4,0.01-6c0.02-0.9-0.16-1.36-1.21-1.35
		c-3.5,0.06-7.01,0.05-10.51,0c-1-0.01-1.29,0.35-1.29,1.3c0.03,3.82,0,7.63-0.02,11.45c-0.01,0.82,0.22,1.25,1.17,1.24
		c3.69-0.04,7.37-0.02,11.06-0.01c0.59,0,0.88-0.07,0.85-0.81C763.89,861.45,763.94,859.51,763.94,857.58z M746.76,910.75
		C746.76,910.75,746.76,910.75,746.76,910.75c-0.01-1.87-0.05-3.75,0.01-5.62c0.03-0.95-0.27-1.35-1.26-1.34
		c-3.44,0.03-6.87,0.05-10.31,0c-1.11-0.02-1.37,0.44-1.36,1.45c0.04,3.69,0.05,7.37,0,11.06c-0.02,1.1,0.29,1.58,1.46,1.56
		c3.37-0.06,6.75-0.07,10.12-0.02c1.11,0.02,1.38-0.46,1.35-1.46C746.73,914.49,746.76,912.62,746.76,910.75z M793.37,874.14
		c0,0-0.01,0-0.01,0c0-2.19-0.05-4.38,0.02-6.57c0.03-1.05-0.25-1.42-1.36-1.39c-2.87,0.08-5.75,0.06-8.63,0
		c-1.13-0.02-1.49,0.35-1.47,1.52c0.07,4.25,0.05,8.51,0.01,12.76c-0.01,0.99,0.19,1.47,1.32,1.45c2.94-0.05,5.88-0.03,8.82,0.04
		c1.08,0.02,1.36-0.4,1.33-1.42C793.32,878.39,793.37,876.26,793.37,874.14z M781.95,893.81c-0.01,0-0.01,0-0.02,0
		c0,2.19,0.03,4.38-0.01,6.56c-0.02,1.02,0.28,1.43,1.38,1.4c2.94-0.07,5.88-0.06,8.81-0.01c1,0.02,1.29-0.34,1.28-1.29
		c-0.03-4.31-0.04-8.62,0.01-12.94c0.01-1.1-0.26-1.56-1.45-1.53c-2.87,0.07-5.75,0.08-8.63,0.01c-1.1-0.03-1.41,0.38-1.38,1.41
		C781.99,889.56,781.95,891.69,781.95,893.81z M746.76,857.32c0-1.94-0.04-3.88,0.02-5.81c0.03-0.98-0.33-1.29-1.3-1.28
		c-3.44,0.05-6.88,0.05-10.31,0c-0.94-0.01-1.33,0.23-1.32,1.25c0.05,3.81,0.05,7.63,0.01,11.44c-0.01,0.99,0.33,1.3,1.3,1.29
		c3.44-0.04,6.88-0.06,10.31,0.01c1.16,0.02,1.34-0.49,1.31-1.46C746.73,860.95,746.76,859.14,746.76,857.32z M763.9,926.57
		c0-1.81-0.05-3.62,0.02-5.43c0.03-0.97-0.27-1.34-1.26-1.33c-3.5,0.04-6.99,0.04-10.49,0.02c-0.84-0.01-1.25,0.18-1.25,1.13
		c0.03,3.75,0.01,7.49-0.03,11.24c-0.01,0.88,0.3,1.2,1.2,1.2c3.56-0.04,7.12-0.04,10.68,0c0.92,0.01,1.17-0.34,1.14-1.21
		C763.86,930.32,763.9,928.44,763.9,926.57z M763.9,841.27c0-1.75-0.05-3.5,0.02-5.25c0.04-1.07-0.18-1.57-1.41-1.55
		c-3.37,0.08-6.75,0.06-10.13,0.01c-0.99-0.01-1.49,0.2-1.47,1.32c0.05,3.68,0.03,7.37,0.01,11.05c0,0.81,0.18,1.26,1.15,1.25
		c3.56-0.05,7.13-0.04,10.69,0c0.91,0.01,1.19-0.32,1.16-1.2C763.86,845.02,763.9,843.14,763.9,841.27z M733.84,841.28
		c0.01,0,0.01,0,0.02,0c0,1.81,0.06,3.63-0.02,5.44c-0.05,1.09,0.35,1.39,1.4,1.38c3.44-0.05,6.88-0.04,10.32,0
		c0.89,0.01,1.21-0.28,1.2-1.17c-0.02-3.63-0.02-7.25,0.03-10.88c0.02-1.16-0.31-1.62-1.58-1.59c-3.31,0.09-6.63,0.05-9.95-0.02
		c-1.22-0.03-1.47,0.52-1.44,1.58C733.89,837.77,733.84,839.53,733.84,841.28z M746.74,926.7c0.01,0,0.02,0,0.02,0
		c0-1.81-0.04-3.62,0.01-5.43c0.03-0.99-0.2-1.47-1.33-1.45c-3.43,0.06-6.87,0.05-10.3,0c-0.98-0.01-1.31,0.33-1.3,1.3
		c0.04,3.68,0.04,7.37,0.01,11.05c-0.01,0.86,0.24,1.23,1.16,1.22c3.56-0.04,7.12-0.03,10.68,0c0.81,0.01,1.09-0.25,1.07-1.07
		C746.7,930.45,746.74,928.57,746.74,926.7z M715.81,894.04c0-2.19-0.04-4.38,0.02-6.57c0.02-0.99-0.19-1.49-1.33-1.46
		c-2.75,0.07-5.5,0.06-8.25,0.01c-0.97-0.02-1.33,0.3-1.32,1.28c0.03,4.38,0.03,8.76,0,13.13c-0.01,0.92,0.22,1.36,1.25,1.34
		c2.81-0.06,5.63-0.06,8.44,0c1.07,0.02,1.22-0.47,1.21-1.36C715.78,898.29,715.81,896.17,715.81,894.04z M715.81,874.14
		c0-2.19-0.05-4.37,0.02-6.56c0.03-1.07-0.33-1.42-1.39-1.4c-2.75,0.05-5.5,0.03-8.24,0c-0.95-0.01-1.29,0.34-1.28,1.33
		c0.05,4.37,0.04,8.75,0,13.12c-0.01,1,0.37,1.28,1.31,1.27c2.81-0.04,5.62-0.04,8.43,0c0.91,0.01,1.17-0.32,1.15-1.2
		C715.77,878.52,715.8,876.33,715.81,874.14z M793.35,910.74C793.36,910.74,793.36,910.74,793.35,910.74
		c0.01-1.81-0.06-3.63,0.03-5.43c0.06-1.14-0.29-1.57-1.44-1.55c-2.93,0.05-5.87,0.06-8.81,0c-1.1-0.02-1.2,0.51-1.19,1.38
		c0.03,3.75,0.04,7.5-0.01,11.25c-0.01,1.03,0.27,1.46,1.36,1.44c2.94-0.05,5.87-0.05,8.81,0c0.98,0.02,1.31-0.29,1.28-1.28
		C793.31,914.62,793.35,912.68,793.35,910.74z M793.37,857.29c0-1.87-0.04-3.75,0.02-5.62c0.03-0.99-0.18-1.48-1.32-1.45
		c-2.93,0.07-5.87,0.07-8.8,0c-1.13-0.03-1.34,0.43-1.33,1.42c0.04,3.75,0.04,7.49,0,11.24c-0.01,0.92,0.2,1.35,1.24,1.33
		c3-0.06,6-0.07,8.99,0c1.04,0.02,1.25-0.37,1.23-1.3C793.33,861.04,793.37,859.17,793.37,857.29z M704.93,910.6
		c0,1.94,0.02,3.87-0.01,5.81c-0.01,0.86,0.11,1.41,1.2,1.39c2.87-0.05,5.74-0.01,8.61,0.02c0.8,0.01,1.08-0.31,1.08-1.11
		c-0.03-3.93-0.03-7.87,0-11.8c0.01-0.8-0.26-1.13-1.07-1.12c-2.87,0.02-5.74,0.04-8.62,0.01c-1.02-0.01-1.25,0.45-1.22,1.38
		C704.98,906.98,704.93,908.79,704.93,910.6z M781.96,841.06c-0.02,0-0.03,0-0.05,0c0,1.87,0.06,3.74-0.02,5.61
		c-0.04,1.05,0.27,1.45,1.36,1.43c3-0.05,6-0.05,9,0c0.93,0.02,1.14-0.31,1.13-1.19c-0.04-3.69-0.03-7.38,0-11.07
		c0.01-0.86-0.09-1.39-1.19-1.37c-3,0.07-6,0.04-9,0.01c-0.82-0.01-1.27,0.18-1.24,1.14C782,837.44,781.96,839.25,781.96,841.06z
		 M781.95,926.59c0,1.87,0.04,3.75-0.02,5.62c-0.02,0.9,0.29,1.19,1.18,1.18c3-0.04,6-0.06,9,0c1.01,0.02,1.28-0.37,1.27-1.3
		c-0.03-3.63-0.04-7.25,0.01-10.88c0.01-1.03-0.29-1.43-1.38-1.4c-2.87,0.07-5.75,0.08-8.62,0c-1.2-0.03-1.5,0.42-1.45,1.52
		C782.01,923.09,781.95,924.84,781.95,926.59z M715.81,857.23c0-1.94-0.03-3.87,0.02-5.81c0.02-0.88-0.26-1.2-1.17-1.19
		c-2.87,0.05-5.75,0.04-8.62,0.01c-0.78-0.01-1.12,0.23-1.11,1.06c0.03,3.93,0.03,7.87,0.01,11.81c0,0.8,0.29,1.11,1.09,1.1
		c2.87-0.03,5.75-0.04,8.62,0c0.89,0.01,1.21-0.27,1.18-1.17C715.77,861.1,715.8,859.17,715.81,857.23z M704.92,926.39
		c0,0,0.01,0,0.01,0c0,1.87,0.05,3.75-0.02,5.62c-0.04,1.05,0.28,1.42,1.36,1.39c2.75-0.07,5.49-0.05,8.24,0
		c0.93,0.02,1.33-0.2,1.31-1.23c-0.06-3.68-0.05-7.37,0-11.05c0.01-0.98-0.31-1.31-1.28-1.29c-2.81,0.05-5.62,0.07-8.43-0.01
		c-1.09-0.03-1.23,0.43-1.2,1.33C704.96,922.89,704.92,924.64,704.92,926.39z M715.81,841.29c0-1.88-0.04-3.75,0.02-5.62
		c0.03-0.89-0.28-1.2-1.18-1.18c-2.81,0.04-5.63,0.04-8.44,0c-0.97-0.02-1.31,0.3-1.29,1.29c0.05,3.69,0.05,7.38,0,11.06
		c-0.01,1.01,0.34,1.29,1.3,1.27c2.81-0.05,5.63-0.05,8.44-0.01c0.89,0.01,1.2-0.28,1.18-1.18
		C715.77,845.04,715.8,843.17,715.81,841.29z"/>
	<path class="st0" d="M1126.27,866.61c0,26.43,0,52.86,0,79.29c0,4.69-0.03,9.38,0.02,14.07c0.01,1.13-0.26,1.53-1.45,1.49
		c-4.11-0.14-8.24-0.39-12.34-0.19c-6.45,0.31-12.89,0.15-19.33,0.16c-30,0.04-60,0.07-90-0.03c-5.19-0.02-10.39-0.34-15.58-0.18
		c-4.63,0.14-9.26,0.19-13.89,0.26c-1.39,0.02-1.76-0.29-1.76-1.74c0.07-22.29,0.07-44.59,0.07-66.88c0-18.27-0.03-36.54-0.04-54.81
		c-0.01-21.54,0.01-43.08-0.06-64.62c0-1.56,0.39-1.94,1.94-1.94c34.26,0.06,68.51,0.08,102.77,0.08c15.91,0,31.81-0.01,47.72-0.09
		c1.53-0.01,1.96,0.32,1.95,1.92C1126.26,804.48,1126.27,835.54,1126.27,866.61z M1075.92,893.99c0.01,0,0.02,0,0.03,0
		c0-2.19-0.03-4.38,0.01-6.56c0.02-1.01-0.27-1.43-1.37-1.41c-3.75,0.06-7.5,0.04-11.26,0.01c-0.92-0.01-1.37,0.22-1.36,1.25
		c0.04,4.44,0.03,8.88,0,13.32c-0.01,0.89,0.28,1.19,1.18,1.18c3.81-0.04,7.63-0.06,11.44,0c1.11,0.02,1.37-0.38,1.34-1.41
		C1075.88,898.25,1075.92,896.12,1075.92,893.99z M1013.89,893.77c0,2.19,0.04,4.38-0.02,6.56c-0.02,0.99,0.18,1.46,1.33,1.44
		c3.81-0.06,7.63-0.04,11.44,0c0.86,0.01,1.23-0.23,1.22-1.15c-0.03-4.44-0.03-8.88,0-13.31c0.01-0.97-0.34-1.3-1.32-1.29
		c-3.75,0.04-7.5,0.04-11.25-0.01c-1.04-0.01-1.46,0.3-1.42,1.38C1013.93,889.51,1013.89,891.64,1013.89,893.77z M1061.99,873.91
		c0,2.26,0.03,4.51-0.01,6.76c-0.02,0.85,0.21,1.23,1.15,1.22c3.88-0.04,7.76-0.04,11.65,0.01c0.92,0.01,1.17-0.32,1.17-1.19
		c-0.03-4.38-0.04-8.77,0-13.15c0.01-0.93-0.22-1.36-1.24-1.35c-3.82,0.04-7.64,0.04-11.46,0c-0.99-0.01-1.29,0.35-1.26,1.32
		C1062.03,869.65,1061.99,871.78,1061.99,873.91z M1013.89,873.95c0,2.25,0.03,4.5-0.01,6.75c-0.02,0.87,0.26,1.21,1.18,1.2
		c3.87-0.04,7.74-0.05,11.61,0.01c1.06,0.02,1.2-0.44,1.2-1.33c-0.03-4.37-0.04-8.74,0.01-13.12c0.01-1.04-0.43-1.24-1.34-1.24
		c-3.75,0.03-7.5,0.04-11.24-0.02c-1.22-0.02-1.45,0.49-1.41,1.58C1013.95,869.82,1013.9,871.89,1013.89,873.95z M1059.99,893.99
		c0-2.12-0.05-4.25,0.02-6.37c0.04-1.2-0.34-1.64-1.6-1.61c-3.31,0.08-6.62,0.06-9.93,0c-1.11-0.02-1.55,0.27-1.54,1.46
		c0.06,4.31,0.05,8.62,0.01,12.92c-0.01,1.06,0.31,1.4,1.38,1.38c3.43-0.06,6.87-0.06,10.3,0.01c1.11,0.02,1.39-0.41,1.36-1.42
		C1059.95,898.24,1059.99,896.11,1059.99,893.99z M1059.97,874c0.01,0,0.01,0,0.02,0c0-2.13-0.02-4.26,0.01-6.38
		c0.01-0.85-0.09-1.46-1.18-1.44c-3.57,0.04-7.13,0.03-10.7,0.02c-0.88,0-1.17,0.37-1.16,1.25c0.04,4.38,0.05,8.76-0.01,13.14
		c-0.02,1.16,0.48,1.32,1.46,1.3c3.38-0.05,6.76-0.07,10.14,0.01c1.22,0.03,1.48-0.43,1.45-1.52
		C1059.92,878.26,1059.97,876.13,1059.97,874z M1030.01,874.07c0,2.19,0.02,4.37-0.01,6.56c-0.01,0.81,0.11,1.27,1.1,1.26
		c3.56-0.05,7.12-0.04,10.69,0c0.81,0.01,1.08-0.26,1.07-1.08c-0.03-4.44-0.04-8.87,0-13.31c0.01-0.98-0.35-1.35-1.28-1.35
		c-3.44,0.03-6.87,0.06-10.31,0.03c-1-0.01-1.29,0.37-1.27,1.32C1030.05,869.7,1030.02,871.89,1030.01,874.07z M1030.02,893.85
		c0,2.19,0.03,4.38-0.01,6.57c-0.02,0.89,0.13,1.37,1.2,1.35c3.5-0.06,7.01-0.05,10.51-0.01c0.95,0.01,1.15-0.38,1.14-1.22
		c-0.03-4.44-0.03-8.88,0-13.32c0-0.88-0.29-1.21-1.2-1.2c-3.44,0.04-6.88,0.05-10.32-0.01c-1.15-0.02-1.35,0.48-1.33,1.46
		C1030.05,889.6,1030.02,891.73,1030.02,893.85z M1068.95,917.81c0,0,0-0.01,0-0.01c1.94,0,3.87-0.03,5.81,0.01
		c0.89,0.02,1.19-0.3,1.18-1.2c-0.04-3.87-0.04-7.74,0-11.61c0.01-0.89-0.3-1.23-1.18-1.23c-3.87,0.02-7.74,0.03-11.61,0.02
		c-0.87,0-1.18,0.32-1.17,1.22c0.04,3.87,0.05,7.74,0,11.61c-0.01,1.06,0.46,1.23,1.36,1.21
		C1065.2,917.77,1067.08,917.81,1068.95,917.81z M1027.85,910.75c0-1.81-0.06-3.63,0.02-5.43c0.05-1.13-0.28-1.56-1.45-1.55
		c-3.75,0.06-7.49,0.05-11.24,0.02c-0.96-0.01-1.31,0.29-1.3,1.29c0.05,3.81,0.04,7.62,0,11.43c-0.01,0.93,0.22,1.33,1.26,1.32
		c3.81-0.06,7.62-0.07,11.43,0c1.17,0.02,1.33-0.5,1.3-1.45C1027.82,914.5,1027.85,912.62,1027.85,910.75z M1020.67,864.19
		c2,0,4-0.03,6,0.02c0.85,0.02,1.22-0.21,1.21-1.13c-0.04-3.87-0.03-7.75,0-11.62c0.01-0.85-0.2-1.24-1.14-1.23
		c-3.87,0.04-7.75,0.04-11.62,0.01c-0.85-0.01-1.24,0.19-1.23,1.14c0.04,3.87,0.05,7.75-0.01,11.62c-0.01,1.07,0.47,1.23,1.36,1.21
		C1017.04,864.16,1018.85,864.19,1020.67,864.19z M1061.99,857.03c0,2,0.04,4-0.02,5.99c-0.02,0.91,0.31,1.18,1.19,1.18
		c3.87-0.03,7.74-0.04,11.61,0c0.9,0.01,1.17-0.3,1.16-1.18c-0.04-3.87-0.04-7.74,0-11.61c0.01-0.88-0.26-1.19-1.17-1.18
		c-3.87,0.04-7.74,0.04-11.61,0c-0.89-0.01-1.21,0.28-1.18,1.18C1062.03,853.29,1061.99,855.16,1061.99,857.03z M1068.94,848.09
		c0-0.01,0-0.01,0-0.02c1.94,0,3.87-0.03,5.81,0.02c0.88,0.02,1.2-0.25,1.19-1.16c-0.04-3.75-0.04-7.49,0-11.24
		c0.01-0.87-0.24-1.21-1.16-1.2c-3.87,0.04-7.74,0.03-11.61-0.01c-0.88-0.01-1.2,0.29-1.19,1.18c0.04,3.75,0.05,7.49-0.01,11.24
		c-0.02,1.07,0.46,1.22,1.35,1.2C1065.19,848.06,1067.06,848.09,1068.94,848.09z M1020.95,834.47c0,0.01,0,0.02,0,0.03
		c-1.88,0-3.75,0.06-5.63-0.02c-1.16-0.05-1.54,0.37-1.52,1.5c0.07,3.62,0.09,7.25,0.07,10.87c-0.01,1,0.33,1.27,1.3,1.26
		c3.81-0.05,7.63-0.05,11.44,0c1.01,0.01,1.26-0.35,1.25-1.3c-0.03-3.69-0.01-7.38,0.03-11.07c0.01-0.99-0.38-1.31-1.33-1.28
		C1024.7,834.5,1022.82,834.47,1020.95,834.47z M1020.64,933.38c2,0,4-0.03,6,0.01c0.84,0.02,1.23-0.18,1.22-1.13
		c-0.04-3.75-0.03-7.51,0-11.26c0.01-0.89-0.32-1.18-1.21-1.17c-3.81,0.04-7.63,0.03-11.45,0c-0.93-0.01-1.36,0.24-1.35,1.27
		c0.05,3.69,0.06,7.38,0.01,11.07c-0.01,1.04,0.4,1.26,1.33,1.23C1017.02,933.33,1018.83,933.38,1020.64,933.38z M1068.97,933.38
		C1068.97,933.38,1068.97,933.38,1068.97,933.38c1.88,0.01,3.75-0.05,5.63,0.03c1.08,0.04,1.37-0.34,1.35-1.39
		c-0.06-3.62-0.04-7.25-0.01-10.88c0.01-0.95-0.26-1.32-1.27-1.31c-3.81,0.05-7.63,0.04-11.44,0c-1.01-0.01-1.27,0.38-1.26,1.33
		c0.05,3.69,0.04,7.38,0,11.06c-0.01,0.9,0.28,1.2,1.18,1.17C1065.09,933.34,1067.03,933.38,1068.97,933.38z M1059.97,910.77
		c0,0,0.01,0,0.01,0c0-1.82-0.05-3.63,0.02-5.45c0.04-1.07-0.17-1.58-1.41-1.55c-3.44,0.08-6.89,0.06-10.33,0.03
		c-0.96-0.01-1.32,0.28-1.31,1.28c0.04,3.82,0.02,7.64-0.01,11.46c-0.01,0.85,0.21,1.29,1.14,1.28c3.57-0.03,7.14-0.04,10.71-0.01
		c0.9,0.01,1.21-0.34,1.2-1.22C1059.95,914.65,1059.97,912.71,1059.97,910.77z M1046.97,857.04c0,1.88,0.08,3.76-0.03,5.63
		c-0.07,1.28,0.42,1.57,1.61,1.54c3.31-0.07,6.63-0.07,9.95,0c1.16,0.03,1.5-0.34,1.48-1.48c-0.05-3.69-0.03-7.38,0.02-11.07
		c0.01-1-0.21-1.46-1.34-1.44c-3.5,0.06-7,0.05-10.51,0.01c-0.89-0.01-1.22,0.27-1.19,1.18
		C1047.01,853.29,1046.98,855.17,1046.97,857.04z M1030.01,910.81c0,1.82,0.06,3.64-0.02,5.45c-0.05,1.11,0.24,1.59,1.43,1.56
		c3.38-0.06,6.77-0.05,10.15-0.01c0.96,0.01,1.3-0.29,1.29-1.28c-0.05-3.82-0.03-7.64,0-11.46c0.01-0.84-0.2-1.29-1.13-1.28
		c-3.51,0.02-7.01,0.03-10.52,0c-1.04-0.01-1.24,0.49-1.21,1.4C1030.05,907.05,1030.02,908.93,1030.01,910.81z M1078.09,893.87
		c0,0,0.01,0,0.01,0c0,2.19,0.03,4.37-0.01,6.56c-0.02,0.89,0.15,1.37,1.22,1.34c3-0.06,6-0.05,8.99-0.01
		c0.91,0.01,1.18-0.32,1.17-1.19c-0.03-4.43-0.04-8.87,0-13.3c0.01-1.02-0.41-1.27-1.34-1.25c-2.94,0.04-5.87,0.04-8.81,0
		c-0.96-0.01-1.3,0.29-1.26,1.3C1078.15,889.5,1078.09,891.69,1078.09,893.87z M1078.1,874.01c0,2.19,0.04,4.38-0.02,6.57
		c-0.02,0.94,0.23,1.33,1.25,1.31c2.94-0.05,5.88-0.06,8.82,0.01c1.11,0.03,1.35-0.39,1.33-1.42c-0.05-4.25-0.06-8.51,0-12.76
		c0.01-1.1-0.25-1.57-1.45-1.54c-2.88,0.07-5.76,0.07-8.63-0.01c-1.16-0.03-1.34,0.48-1.31,1.46
		C1078.14,869.76,1078.1,871.88,1078.1,874.01z M1046.98,841.38c0,1.75,0.06,3.5-0.02,5.24c-0.05,1.13,0.28,1.51,1.46,1.49
		c3.43-0.06,6.87-0.02,10.3,0.04c0.95,0.02,1.35-0.26,1.33-1.27c-0.06-3.68-0.07-7.37-0.04-11.05c0.01-1.09-0.43-1.37-1.45-1.36
		c-3.43,0.05-6.87,0.05-10.3,0.01c-0.97-0.01-1.33,0.29-1.3,1.28C1047.02,837.63,1046.98,839.51,1046.98,841.38z M1059.97,926.58
		c0,0,0.01,0,0.01,0c0-1.81-0.04-3.62,0.02-5.43c0.03-0.97-0.29-1.33-1.28-1.32c-3.5,0.04-6.99,0.04-10.49,0
		c-0.99-0.01-1.3,0.37-1.29,1.32c0.04,3.68,0.04,7.37,0.01,11.05c-0.01,0.86,0.24,1.21,1.17,1.19c3.56-0.05,7.12-0.04,10.68,0
		c0.9,0.01,1.21-0.3,1.19-1.2C1059.94,930.32,1059.97,928.45,1059.97,926.58z M1042.84,857.41c0-2-0.03-4,0.02-6
		c0.02-0.89-0.28-1.19-1.18-1.18c-3.5,0.04-7,0.04-10.5,0c-0.89-0.01-1.19,0.29-1.18,1.18c0.04,3.88,0.04,7.75,0,11.63
		c-0.01,0.9,0.31,1.18,1.19,1.17c3.5-0.04,7-0.04,10.5,0c0.9,0.01,1.19-0.29,1.17-1.17
		C1042.81,861.16,1042.84,859.29,1042.84,857.41z M1042.84,926.61c0,0,0.01,0,0.01,0c0-1.82-0.05-3.63,0.02-5.45
		c0.03-0.94-0.2-1.36-1.23-1.34c-3.44,0.05-6.89,0.05-10.33,0c-0.96-0.01-1.32,0.28-1.31,1.28c0.04,3.69,0.03,7.39,0,11.08
		c-0.01,0.85,0.19,1.23,1.14,1.21c3.51-0.05,7.01-0.05,10.52,0.01c1.07,0.02,1.22-0.45,1.2-1.35
		C1042.81,930.24,1042.84,928.42,1042.84,926.61z M1042.84,841.25c0-1.81-0.04-3.63,0.02-5.44c0.03-0.92-0.19-1.35-1.23-1.33
		c-3.44,0.05-6.87,0.04-10.31,0c-0.92-0.01-1.34,0.21-1.32,1.24c0.06,3.69,0.04,7.37,0.01,11.06c-0.01,0.91,0.16,1.34,1.22,1.32
		c3.44-0.07,6.87-0.07,10.31-0.01c1.11,0.02,1.36-0.4,1.33-1.41C1042.79,844.88,1042.84,843.06,1042.84,841.25z M1001.08,894.06
		c0,2.07,0.05,4.13-0.02,6.19c-0.04,1.08,0.19,1.57,1.42,1.53c2.69-0.09,5.38-0.06,8.07-0.01c0.95,0.02,1.35-0.25,1.34-1.25
		c-0.03-4.38-0.04-8.76,0-13.14c0.01-1.1-0.45-1.38-1.47-1.36c-2.69,0.05-5.38,0.05-8.07,0c-0.98-0.02-1.32,0.3-1.3,1.28
		C1001.12,889.55,1001.08,891.8,1001.08,894.06z M1001.08,873.9c0,2.13,0.08,4.26-0.03,6.38c-0.07,1.37,0.43,1.68,1.7,1.63
		c2.5-0.1,5-0.09,7.5-0.01c1.18,0.04,1.66-0.23,1.64-1.52c-0.07-4.25-0.06-8.5,0.01-12.75c0.02-1.22-0.5-1.47-1.57-1.44
		c-2.69,0.05-5.38,0.06-8.06,0c-0.92-0.02-1.21,0.26-1.19,1.16C1001.11,869.53,1001.08,871.71,1001.08,873.9z M1078.1,910.79
		c0,1.94,0.03,3.87-0.01,5.81c-0.02,0.88,0.28,1.22,1.18,1.21c3-0.04,6-0.03,8.99-0.01c0.85,0.01,1.23-0.25,1.22-1.18
		c-0.04-3.87-0.04-7.75-0.01-11.62c0.01-0.89-0.31-1.23-1.18-1.23c-3,0.02-6,0.03-8.99,0c-1.04-0.01-1.23,0.5-1.21,1.4
		C1078.14,907.04,1078.1,908.92,1078.1,910.79z M1089.46,857.22c0-1.94-0.04-3.88,0.02-5.82c0.02-0.9-0.3-1.18-1.18-1.17
		c-3,0.04-6.01,0.04-9.01,0c-0.89-0.01-1.2,0.27-1.19,1.17c0.04,3.88,0.04,7.76,0,11.64c-0.01,0.91,0.29,1.18,1.18,1.17
		c3-0.04,6.01-0.06,9.01,0.01c1.08,0.02,1.22-0.47,1.2-1.36C1089.43,860.98,1089.46,859.1,1089.46,857.22z M1001.08,910.79
		c0,1.94,0.03,3.87-0.01,5.81c-0.02,0.87,0.25,1.24,1.16,1.22c2.81-0.04,5.62-0.04,8.43-0.01c0.88,0.01,1.22-0.3,1.21-1.19
		c-0.02-3.87-0.02-7.74,0.01-11.61c0.01-0.86-0.28-1.24-1.19-1.23c-2.81,0.04-5.61,0.08-8.42,0.03c-1.08-0.02-1.23,0.48-1.2,1.37
		C1001.11,907.04,1001.08,908.92,1001.08,910.79z M1078.09,926.57C1078.1,926.57,1078.1,926.57,1078.09,926.57
		c0.01,1.87,0.04,3.75-0.01,5.62c-0.02,0.86,0.21,1.21,1.14,1.2c2.99-0.05,5.99-0.05,8.99,0c0.99,0.02,1.28-0.31,1.27-1.28
		c-0.05-3.68-0.05-7.36-0.01-11.05c0.01-1.04-0.41-1.26-1.33-1.24c-2.93,0.04-5.87,0.05-8.8,0c-1.01-0.02-1.29,0.38-1.26,1.32
		C1078.13,922.95,1078.09,924.76,1078.09,926.57z M1089.46,841.27c0-1.81-0.04-3.63,0.02-5.44c0.03-0.91-0.17-1.36-1.22-1.34
		c-3,0.06-6.01,0.05-9.01,0c-0.93-0.01-1.16,0.37-1.15,1.23c0.03,3.75,0.04,7.51-0.01,11.26c-0.01,0.96,0.39,1.13,1.23,1.12
		c3-0.04,6.01-0.04,9.01,0c0.93,0.01,1.18-0.33,1.15-1.2C1089.42,845.03,1089.46,843.15,1089.46,841.27z M1001.08,857.22
		c0,1.94,0.04,3.88-0.02,5.82c-0.02,0.91,0.31,1.18,1.19,1.17c2.75-0.04,5.51-0.07,8.26,0.01c1.13,0.03,1.35-0.42,1.35-1.42
		c-0.03-3.69-0.03-7.38,0.03-11.07c0.02-1.13-0.32-1.52-1.48-1.5c-2.75,0.06-5.5,0.03-8.25-0.05c-0.85-0.02-1.09,0.26-1.08,1.05
		C1001.1,853.22,1001.08,855.22,1001.08,857.22z M1011.87,840.8c0.35-1.29-0.12-3.05,0.12-4.79c0.13-0.98-0.15-1.54-1.3-1.52
		c-2.82,0.05-5.64,0.04-8.46,0c-0.91-0.01-1.18,0.32-1.17,1.2c0.03,3.76,0.04,7.51,0,11.27c-0.01,0.91,0.3,1.17,1.19,1.15
		c2.87-0.05,5.74-0.04,8.61-0.01c0.92,0.01,1-0.54,1-1.21C1011.87,845,1011.87,843.13,1011.87,840.8z M1011.86,926.79
		c0,0,0.01,0,0.01,0c0-1.88-0.03-3.76,0.01-5.63c0.02-0.94-0.27-1.35-1.28-1.33c-2.75,0.05-5.51,0.05-8.26-0.01
		c-1-0.02-1.29,0.33-1.28,1.29c0.04,3.69,0.04,7.39,0.01,11.08c-0.01,0.87,0.24,1.22,1.16,1.21c2.82-0.05,5.63-0.05,8.45,0
		c1.02,0.02,1.26-0.38,1.21-1.35C1011.8,930.3,1011.86,928.54,1011.86,926.79z"/>
	<path class="st0" d="M977.62,709.5c-10,0-20.01-0.01-30.01,0.01c-3.2,0-5.13,1.19-5.64,3.85c-0.54,2.83-0.46,5.76-0.05,8.59
		c0.35,2.44,2.56,3.91,5.25,3.91c5.95,0.02,11.9,0.07,17.85-0.04c1.62-0.03,1.91,0.49,1.91,1.99c-0.05,28.69-0.04,57.38,0,86.06
		c0,1.42-0.3,1.89-1.83,1.89c-32.88-0.06-65.77-0.05-98.65-0.06c-11.21,0-22.42-0.02-33.64,0.05c-1.48,0.01-1.88-0.39-1.88-1.87
		c0.04-24.61,0.03-49.23,0.03-73.84c0-3.94,0.08-7.89-0.04-11.82c-0.06-1.79,0.29-2.48,2.31-2.42c5.69,0.17,11.4,0.06,17.1,0.06
		c3.77,0,5.79-2.04,5.77-5.8c-0.01-1.57-0.02-3.13-0.02-4.7c-0.02-4.01-1.8-5.83-5.86-5.85c-5.83-0.03-11.65-0.01-17.48-0.01
		c-4.11,0-8.23,0-12.48,0c0.23-0.86,0.83-1.24,1.28-1.69c22.44-22.45,44.86-44.93,67.37-67.32c2.97-2.96,5.86-5.99,8.84-8.94
		c0.91-0.91,1.38-1.14,2.43-0.07c15.48,15.6,31.01,31.15,46.55,46.69c10.05,10.05,20.12,20.08,30.19,30.11
		c0.3,0.3,0.75,0.45,1.14,0.67C977.91,709.13,977.77,709.31,977.62,709.5z M879.68,725.84c0,3.81,0.03,7.63-0.02,11.44
		c-0.02,1.06,0.31,1.39,1.37,1.38c5.18-0.05,10.36-0.05,15.55,0c1.07,0.01,1.38-0.32,1.38-1.38c-0.03-7.49-0.02-14.98,0.02-22.47
		c0-1-0.25-1.43-1.37-1.42c-5.19,0.05-10.38,0.05-15.57,0c-1.06-0.01-1.39,0.3-1.38,1.37C879.71,718.46,879.68,722.15,879.68,725.84
		z M899.99,725.84c0,3.76,0.05,7.51-0.03,11.26c-0.02,1.22,0.33,1.6,1.57,1.58c5.01-0.07,10.02-0.07,15.03,0.01
		c1.38,0.02,1.64-0.5,1.63-1.73c-0.05-7.33-0.05-14.66,0.01-21.98c0.01-1.26-0.4-1.58-1.6-1.57c-5.01,0.06-10.02,0.08-15.03-0.01
		c-1.42-0.02-1.62,0.53-1.6,1.75C900.04,718.7,900,722.27,899.99,725.84z M879.67,751.8c0,3.25,0,6.5,0,9.76
		c0,0.66-0.18,1.4,0.95,1.39c5.44-0.03,10.88-0.01,16.32,0c0.67,0,1.03-0.2,1.02-0.97c-0.03-6.69-0.04-13.38-0.03-20.08
		c0-0.81-0.3-1.09-1.1-1.09c-5.3,0.02-10.61,0.04-15.91-0.01c-1.16-0.01-1.29,0.48-1.28,1.44
		C879.71,745.43,879.68,748.62,879.67,751.8z M897.94,700.38C897.94,700.38,897.94,700.38,897.94,700.38
		c0.01-3.07-0.1-6.14,0.05-9.2c0.09-1.74-0.54-2.09-2.13-2.06c-4.94,0.08-9.89,0.03-14.83-0.04c-1.09-0.01-1.4,0.35-1.39,1.4
		c0.04,6.45,0.06,12.89,0.01,19.34c-0.01,1.16,0.35,1.48,1.49,1.46c5.07-0.06,10.14-0.09,15.21,0.01c1.44,0.03,1.64-0.49,1.61-1.72
		C897.89,706.51,897.94,703.45,897.94,700.38z M918.16,700.39c0.01,0,0.02,0,0.03,0c0-3.25-0.04-6.51,0.02-9.76
		c0.02-1.14-0.34-1.52-1.49-1.51c-5.07,0.06-10.13,0.05-15.2,0.02c-1.06-0.01-1.56,0.2-1.55,1.44c0.06,6.44,0.05,12.89,0,19.33
		c-0.01,1.08,0.33,1.38,1.39,1.37c5.13-0.05,10.26-0.05,15.38,0.02c1.22,0.02,1.45-0.46,1.43-1.53
		C918.12,706.64,918.16,703.51,918.16,700.39z M900,751.97c0,3.13,0.05,6.26-0.03,9.39c-0.03,1.19,0.25,1.63,1.54,1.61
		c5.01-0.07,10.02-0.05,15.02-0.01c1.14,0.01,1.68-0.2,1.66-1.53c-0.07-6.45-0.05-12.9-0.01-19.34c0.01-0.98-0.26-1.28-1.25-1.27
		c-5.2,0.05-10.39,0.06-15.59,0c-1.11-0.01-1.38,0.36-1.37,1.39C900.03,745.46,900,748.72,900,751.97z"/>
	<path class="st0" d="M1124.12,757.72c-6.55,0-12.62,0-18.68,0c-35.87,0-71.74,0.13-107.61-0.09c-8.07-0.05-16.14,0.31-24.21,0.13
		c-1.3-0.03-1.69-0.36-1.68-1.68c0.05-9.52,0.07-19.04-0.01-28.56c-0.01-1.54,0.58-1.68,1.85-1.67c10.27,0.04,20.55,0.03,30.82,0.02
		c2.78,0,4.69-1.09,5.48-3.11c0.95-2.43,0.1-4.31-1.66-6.06c-14.97-14.93-29.91-29.9-44.85-44.86
		c-16.54-16.55-33.07-33.11-49.6-49.66c-3.63-3.63-7.26-7.25-10.91-10.85c-2.71-2.67-4.8-2.74-7.65-0.13
		c-4.7,4.31-9.22,8.81-13.71,13.35c-4.22,4.27-8.67,8.3-12.85,12.61c-10.63,10.97-21.56,21.65-32.32,32.48
		c-12.05,12.12-24.18,24.17-36.23,36.29c-0.95,0.95-1.38,0.78-2.18-0.09c-2.41-2.63-4.86-5.23-7.39-7.75
		c-0.81-0.81-0.86-1.2-0.02-2.04c5.61-5.54,11.16-11.16,16.74-16.74c9.48-9.48,18.96-18.94,28.44-28.41
		c19.89-19.87,39.78-39.73,59.67-59.6c9.93-9.91,19.87-19.81,29.75-29.76c1.04-1.05,1.56-1.02,2.58,0.01
		c13.2,13.27,26.44,26.5,39.68,39.73c8.41,8.41,16.85,16.8,25.26,25.21c29.27,29.26,58.52,58.54,87.79,87.79
		c8.33,8.32,16.7,16.59,25.04,24.9c5.63,5.61,11.24,11.24,16.86,16.86C1122.98,756.47,1123.38,756.93,1124.12,757.72z"/>
	<path class="st0" d="M923.73,904.2c0,15.59-0.02,31.18,0.04,46.77c0.01,1.57-0.41,1.95-1.96,1.95c-15.27-0.06-30.55-0.06-45.82,0
		c-1.53,0.01-1.97-0.33-1.97-1.93c0.05-26.23,0.03-52.47,0.04-78.7c0-5.07,0.11-10.13,0.08-15.2c-0.01-1.16,0.31-1.46,1.47-1.46
		c15.52,0,31.04-0.03,46.57-0.12c1.42-0.01,1.59,0.53,1.59,1.74C923.72,872.9,923.73,888.55,923.73,904.2z M899.35,864.79
		c-1.42-0.02-2.12,0.57-2.75,1.31c-4.21,4.97-8.43,9.92-12.64,14.89c-1.5,1.77-1.54,2.73-0.09,4.46
		c4.27,5.07,8.56,10.13,12.88,15.16c1.4,1.64,2.93,1.66,4.3,0.06c4.35-5.09,8.63-10.24,12.99-15.32c1.26-1.46,1.21-2.78,0.03-4.18
		c-4.3-5.05-8.6-10.1-12.9-15.16C900.58,865.33,899.92,864.8,899.35,864.79z M881.92,908.15c0-1.36-1.25-2.61-2.63-2.63
		c-1.43-0.02-2.64,1.12-2.68,2.54c-0.05,1.49,1.19,2.75,2.69,2.73C880.66,910.78,881.92,909.52,881.92,908.15z"/>
	<path class="st0" d="M1151.11,769.02c-6.27,0-12.41-0.02-18.55,0.02c-0.82,0-1.21-0.23-1.49-1.03c-0.39-1.13-1.36-1.57-2.52-1.57
		c-1,0-2,0-3.01,0c-50.55,0-101.1,0-151.64-0.01c-1.68,0-2.7-1.88-1.88-3.39c0.2-0.36,0.49-0.33,0.78-0.34
		c0.63-0.01,1.25-0.01,1.88-0.01c35.77,0,71.54,0,107.31,0c17.41,0,34.82,0,52.23-0.01c0.53,0,1.1,0.17,1.83-0.3
		c-3.63-3.61-7.22-7.15-10.78-10.71c-28.44-28.42-56.87-56.84-85.3-85.26c-12.23-12.22-24.47-24.43-36.7-36.65
		c-24.94-24.92-49.88-49.84-74.82-74.75c-0.31-0.31-0.68-0.57-0.94-0.92c-0.67-0.88-1.16-0.69-1.89,0.04
		c-6.75,6.8-13.54,13.56-20.32,20.33c-25,24.96-50,49.91-74.99,74.88c-14.27,14.25-28.52,28.51-42.74,42.82
		c-1.05,1.05-1.63,1.15-2.54-0.05c-0.9-1.18-2.67-2.18-2.74-3.35c-0.06-0.96,1.78-2.06,2.8-3.08
		c34.25-34.22,68.5-68.43,102.74-102.64c12.58-12.57,25.17-25.14,37.72-37.74c0.81-0.82,1.17-0.95,2.09-0.02
		c15.64,15.71,31.35,31.37,47.02,47.05c19.12,19.12,38.22,38.27,57.35,57.39c24.36,24.35,48.74,48.67,73.12,73
		c14.97,14.94,29.95,29.88,44.91,44.83C1150.42,767.93,1150.98,768.18,1151.11,769.02z"/>
	<path class="st0" d="M928.88,902.37c0-16.04,0-32.08,0-48.11c0-3.04-0.71-3.74-3.77-3.75c-10.71,0-21.43,0.17-32.14-0.07
		c-5.32-0.12-10.63,0.28-15.94,0.08c-1.56-0.06-3.12-0.22-4.67-0.23c-2.54-0.02-3.54,0.97-3.56,3.49
		c-0.05,5.51,0.17,11.02,0.19,16.52c0.09,26.81,0.04,53.62,0.05,80.43c0,2.09-0.82,2.68-2.84,2.16c-0.58-0.15-0.65-0.49-0.65-0.95
		c0-0.88-0.02-1.75,0-2.63c0.03-1.77-0.77-2.94-2.56-3.07c-1.09-0.08-1.16-0.61-1.15-1.44c0.04-16.16,0.07-32.32,0.08-48.48
		c0.01-11.03-0.02-22.05-0.06-33.08c0-1-0.08-1.7,1.37-1.78c1.85-0.1,2.32-1.56,2.32-3.26c-0.03-7.33-0.01-14.66,0-21.99
		c0-4,0-4,4.01-4c20.23,0,40.47,0.02,60.7-0.04c1.73-0.01,2.16,0.45,2.14,2.16c-0.09,7.89-0.04,15.79-0.04,23.68
		c0,2.49,0.46,3.1,2.86,3.51c0.62,0.11,0.9,0.27,0.86,0.9c-0.03,0.5,0,1,0,1.5c0,26.75-0.01,53.5,0.02,80.25
		c0,1.2,0.1,2.12-1.61,2.17c-1.33,0.04-2.02,1.14-2.11,2.48c-0.05,0.81-0.1,1.64,0.01,2.44c0.17,1.35-0.38,1.62-1.66,1.67
		c-1.52,0.05-1.85-0.45-1.85-1.89C928.9,934.82,928.88,918.6,928.88,902.37z"/>
	<path class="st0" d="M1004.91,720.83c-11.76,0-23.53,0-35.29,0c-6.95,0-13.9-0.04-20.84,0.05c-1.6,0.02-1.99-0.47-1.96-2
		c0.08-4.3,0.01-4.31,4.29-4.31c12.22,0,24.43,0,36.65,0c0.68,0,1.36,0,2.07,0c0-0.86-0.66-1.13-1.06-1.54
		c-27.67-27.68-55.35-55.35-83.02-83.02c-1.9-1.9-3.85-3.77-5.69-5.73c-0.81-0.86-1.24-0.95-2.14-0.03
		c-5.39,5.48-10.86,10.88-16.3,16.31c-24.12,24.12-48.24,48.25-72.36,72.38c-0.42,0.42-0.83,0.87-1.29,1.36
		c0.75,0.47,1.44,0.27,2.1,0.27c12.97,0.01,25.94,0.04,38.9-0.02c1.56-0.01,2.18,0.24,2.12,2.01c-0.14,4.29-0.04,4.3-4.29,4.3
		c-17.48,0.01-34.95,0-52.43,0.01c-0.47,0-0.94,0-1.41,0c-0.14-0.2-0.27-0.4-0.41-0.6c1.74-1.58,3.55-3.09,5.21-4.74
		c17.82-17.79,35.62-35.6,53.42-53.41c6.02-6.02,11.95-12.14,18.1-18.02c4.92-4.71,9.51-9.73,14.5-14.38
		c4.89-4.55,9.44-9.47,14.09-14.27c0.84-0.87,1.32-0.92,2.2-0.03c18.17,18.23,36.37,36.44,54.57,54.64
		c16.12,16.12,32.25,32.23,48.39,48.34c0.7,0.7,1.48,1.31,2.22,1.97C1005.14,720.52,1005.03,720.67,1004.91,720.83z"/>
	<path class="st0" d="M663.36,762.68c3.4,0,6.44,0,9.47,0c6.95,0,13.91,0.05,20.86-0.04c1.5-0.02,1.87,0.47,1.72,1.8
		c-0.19,1.72,0.75,3.95-0.39,5.05c-1.04,1-3.22,0.29-4.9,0.29c-14.47,0.02-28.94,0.01-43.38,0.01c-0.29-0.64,0.28-0.81,0.54-1.08
		c22.03-23.11,44.07-46.21,66.11-69.32c11.54-12.1,23.09-24.18,34.58-36.32c1.04-1.1,1.56-1.01,2.54,0.02
		c12.32,12.99,24.68,25.95,37.03,38.91c2.38,2.49,4.71,5.03,7.15,7.46c0.84,0.84,0.83,1.34-0.05,2.08c-1.23,1.04-2.2,3.12-3.51,3.07
		c-1.12-0.04-2.17-2.04-3.23-3.18c-12.26-13.3-24.52-26.61-36.78-39.91c-1.93-2.1-1.92-2.07-3.83,0
		c-11.55,12.51-23.12,25.01-34.68,37.53c-15.93,17.25-31.84,34.51-47.76,51.78C664.42,761.3,664.03,761.84,663.36,762.68z"/>
	<path class="st0" d="M830.95,896.91c0-20.85,0.02-41.71-0.04-62.56c0-1.7,0.41-2.36,2.15-2.15c1.6,0.19,3.7-0.64,4.72,0.31
		c1.03,0.97,0.32,3.08,0.33,4.68c0.04,6.89,0.01,13.78,0.02,20.66c0,2.68,0.3,3.11,2.91,3.67c0.84,0.18,0.78,0.65,0.79,1.2
		c0.01,1.82,0.01,3.63,0.01,5.45c0,25.24-0.01,50.48,0.01,75.72c0,1.3,0.1,2.41-1.74,2.51c-1.3,0.08-1.85,1.19-1.96,2.4
		c-0.08,0.87-0.05,1.75-0.01,2.63c0.04,0.91-0.01,1.48-1.24,1.51c-1.63,0.03-2.42,1.14-2.45,2.74c-0.03,1.44-0.07,2.88,0,4.32
		c0.09,1.78-1.17,1.33-2.16,1.45c-1.15,0.14-1.34-0.43-1.34-1.42c0.03-17.47,0.03-34.95,0.04-52.42c0-3.57,0-7.13,0-10.7
		C830.97,896.91,830.96,896.91,830.95,896.91z"/>
	<path class="st0" d="M966.89,896.85c0,20.85,0,41.71,0,62.56c0,1.89-1.15,2.66-2.92,2.01c-0.59-0.22-0.49-0.65-0.49-1.06
		c-0.02-1.44,0.01-2.88-0.01-4.32c-0.03-2.02-0.74-2.92-2.68-3.12c-0.8-0.09-1.1-0.3-1.05-1.1c0.05-0.87-0.02-1.75,0.02-2.63
		c0.09-1.77-0.86-2.76-2.49-2.93c-1.08-0.11-1.29-0.48-1.29-1.48c0.03-16.53,0.02-33.07,0.02-49.6c0-10.58,0.01-21.17-0.02-31.75
		c0-1.14-0.04-1.91,1.55-1.99c1.58-0.08,2.22-1.35,2.22-2.96c-0.02-8.08,0.04-16.16-0.05-24.23c-0.02-1.63,0.33-2.36,2.03-2.03
		c0.18,0.04,0.37,0.02,0.56,0.03c1.48,0.08,3.48-0.71,4.29,0.31c0.74,0.94,0.28,2.86,0.28,4.35
		C966.89,856.9,966.89,876.87,966.89,896.85z"/>
	<path class="st0" d="M951.02,906.47c0,14.27,0.03,28.55-0.04,42.82c-0.01,1.65,0.41,2.28,2.08,2.08c0.55-0.06,1.56-0.49,1.62,0.62
		c0.07,1.24-0.99,0.86-1.65,0.87c-4.7,0.03-9.39,0.03-14.09,0c-0.52,0-1.36,0.4-1.43-0.65c-0.08-1.2,0.86-0.94,1.43-0.84
		c2.08,0.36,2.3-0.69,2.3-2.44c-0.05-28.42-0.02-56.85-0.07-85.27c0-1.64,0.3-2.31,2.08-2.15c1.99,0.17,4.01,0.13,6,0.01
		c1.39-0.08,1.83,0.31,1.8,1.75c-0.09,5.13-0.03,10.27-0.03,15.4C951.02,887.94,951.02,897.21,951.02,906.47z"/>
	<path class="st0" d="M856.76,906.43c0,14.21,0.03,28.42-0.04,42.63c-0.01,1.7,0.25,2.6,2.19,2.31c0.52-0.08,1.51-0.5,1.56,0.69
		c0.05,1.21-0.91,0.8-1.49,0.8c-4.76,0.03-9.52,0.03-14.27-0.01c-0.51,0-1.37,0.45-1.46-0.61c-0.09-1.15,0.83-0.97,1.42-0.88
		c1.96,0.3,2.34-0.53,2.33-2.38c-0.06-28.42-0.02-56.84-0.09-85.26c0-1.83,0.45-2.39,2.26-2.22c1.8,0.17,3.64,0.14,5.44,0.01
		c1.65-0.13,2.2,0.31,2.19,2.1C856.72,877.89,856.76,892.16,856.76,906.43z"/>
	<path class="st0" d="M898.84,820.89c22.04,0,44.09,0.02,66.13-0.03c1.54,0,2,0.35,1.96,1.94c-0.11,4.33-0.03,4.34-4.4,4.33
		c-18.72-0.02-37.45-0.05-56.17-0.05c-16.66,0-33.32,0.05-49.98,0.07c-7.89,0.01-15.78-0.04-23.66,0.01
		c-1.34,0.01-1.84-0.22-1.8-1.71c0.11-4.56,0.03-4.56,4.61-4.56C856.62,820.88,877.73,820.88,898.84,820.89z"/>
	<path class="st0" d="M1054.12,969.88c-15.53,0-31.06,0-46.59,0c-11.25,0-22.5-0.03-33.75,0.04c-1.51,0.01-1.83-0.42-1.87-1.85
		c-0.05-1.6,0.72-1.64,1.92-1.63c8.5,0.09,17,0.09,25.5,0.07c34.93-0.1,69.86-0.04,104.79-0.04c10.14,0,20.28,0.02,30.42-0.02
		c1.24,0,1.9,0.08,1.89,1.65c-0.01,1.56-0.55,1.82-1.93,1.81C1107.71,969.87,1080.91,969.88,1054.12,969.88z"/>
	<path class="st0" d="M743.58,969.88c-26.68,0-53.36-0.01-80.04,0.03c-1.53,0-2.26-0.21-2.07-1.98c0.11-1.09,0.26-1.54,1.46-1.47
		c1.81,0.1,3.63,0,5.45,0c27.68,0,55.36-0.02,83.04,0.01c7.5,0.01,15,0.09,22.5,0.03c16.65-0.13,33.3-0.05,49.95-0.06
		c1.96,0,2.58,0.9,1.98,2.79c-0.18,0.57-0.53,0.62-0.98,0.63c-0.81,0.02-1.63,0.02-2.44,0.02c-13.47,0-26.93,0.02-40.4,0
		c-8.75-0.01-17.5-0.09-26.25-0.12c-4.07-0.02-8.14,0-12.21,0C743.58,969.79,743.58,969.84,743.58,969.88z"/>
	<path class="st0" d="M899.04,966.46c21.93,0,43.85,0,65.78,0c1.91,0,2.68,1.12,2.05,2.91c-0.21,0.61-0.64,0.49-1.05,0.5
		c-0.88,0.02-1.75,0.01-2.63,0.01c-25.18,0-50.37,0-75.55,0c-18.23,0-36.45-0.01-54.68,0.01c-1.19,0-2.16,0.11-2.08-1.69
		c0.06-1.42,0.43-1.78,1.82-1.77c16.47,0.08,32.95,0.1,49.42,0.14c5.64,0.01,11.27,0,16.91,0
		C899.04,966.53,899.04,966.49,899.04,966.46z"/>
	<path class="st0" d="M924.85,961.44c-10.14,0-20.29,0-30.43,0c-17.63,0-35.26,0-52.89-0.01c-1.85,0-2.76-1.4-2.04-3.07
		c0.3-0.69,0.86-0.35,1.29-0.35c8.95-0.02,17.91-0.01,26.86-0.02c7.07,0,14.13-0.03,21.2-0.02c20.02,0.01,40.04,0.04,60.06,0.05
		c2.63,0,5.26,0.04,7.88-0.1c1.46-0.08,1.58,0.57,1.57,1.76c-0.01,1.17-0.11,1.8-1.57,1.79
		C946.14,961.41,935.49,961.44,924.85,961.44z"/>
	<path class="st0" d="M860.48,844.25c0,3.63-0.03,7.26,0.02,10.89c0.01,1.04-0.27,1.43-1.37,1.42c-4.88-0.05-9.76-0.04-14.64,0
		c-0.99,0.01-1.29-0.32-1.29-1.29c0.03-7.26,0.03-14.51,0-21.77c0-0.97,0.26-1.3,1.26-1.29c4.88,0.04,9.76,0.06,14.64-0.01
		c1.26-0.02,1.41,0.49,1.4,1.55C860.45,837.24,860.48,840.75,860.48,844.25z"/>
	<path class="st0" d="M954.73,844.38c0,3.51-0.04,7.01,0.02,10.52c0.02,1.15-0.21,1.69-1.53,1.67c-4.76-0.07-9.52-0.06-14.28-0.01
		c-1.17,0.01-1.49-0.39-1.49-1.52c0.04-7.14,0.05-14.28-0.01-21.42c-0.01-1.22,0.45-1.44,1.54-1.43c4.76,0.05,9.52,0.05,14.28,0
		c1.14-0.01,1.52,0.32,1.49,1.48C954.69,837.24,954.73,840.81,954.73,844.38z"/>
	<path class="st0" d="M825.88,752.58c-8.33-9.03-16.32-17.7-24.63-26.7c3.17,0,5.94-0.04,8.7,0.02c0.81,0.02,1.21,0.85,1.7,1.36
		c4.46,4.64,8.87,9.33,13.31,13.98c0.63,0.66,0.98,1.29,0.95,2.28C825.82,746.38,825.88,749.24,825.88,752.58z"/>
	<path class="st0" d="M814.46,762.65c3.31,0,6.63,0.03,9.94-0.02c1.07-0.02,1.62,0.16,1.53,1.41c-0.11,1.55-0.06,3.12-0.02,4.69
		c0.02,0.82-0.3,1.09-1.1,1.09c-6.94-0.02-13.87-0.02-20.81-0.01c-0.67,0-1.09-0.16-1.02-0.93c0.02-0.19,0-0.37,0-0.56
		c0.04-1.8-0.59-4.14,0.3-5.26c0.95-1.18,3.39-0.3,5.17-0.37C810.46,762.59,812.46,762.66,814.46,762.65z"/>
	<path class="st0" d="M817.24,725.86c2.9,0,5.32,0.02,7.73-0.01c0.76-0.01,0.94,0.35,0.94,1.03c-0.02,2.53-0.01,5.07-0.01,8.1
		C822.92,731.84,820.26,729.04,817.24,725.86z"/>
</g>
</svg>
