<?xml version="1.0" encoding="utf-8"?>
<!-- Generator: Adobe Illustrator 26.0.1, SVG Export Plug-In . SVG Version: 6.00 Build 0)  -->
<svg version="1.1" id="Layer_1" xmlns="http://www.w3.org/2000/svg" xmlns:xlink="http://www.w3.org/1999/xlink" x="0px" y="0px"
	 viewBox="0 0 1804.44 1984.25" style="enable-background:new 0 0 1804.44 1984.25;" xml:space="preserve">
<style type="text/css">
	.st0{fill:#00AEEF;}
</style>
<path class="st0" d="M1147.68,1392.03l-258.1,447.02l-256.59-444.53c77.57,37.92,162.93,56.73,256.14,56.42
	C983.32,1450.65,1069.5,1431.01,1147.68,1392.03z"/>
<path class="st0" d="M475.1,1195.96c-115.76-115.76-173.35-254.58-172.79-416.5c0.53-161.91,58.16-300.18,172.79-414.81
	c114.61-114.61,253.15-172.52,415.64-173.62c162.47-1.12,301.57,56.19,417.33,171.95c114.61,114.61,171.37,253.15,170.26,415.64
	c-1.12,162.47-58.99,301.05-173.6,415.66c-114.63,114.63-252.93,172.22-414.83,172.77C727.98,1367.6,589.71,1310.56,475.1,1195.96z
	 M526,779.46c0.56,100.71,36.45,186.68,107.68,257.91c71.19,71.19,157.16,107.08,257.89,107.66
	c100.71,0.56,186.68-34.76,257.91-105.99c71.21-71.21,106.55-157.2,105.99-257.91c-0.58-100.73-36.47-186.7-107.66-257.89
	c-72.36-72.36-158.59-108.52-258.75-108.52s-185.85,35.63-257.06,106.85C560.78,592.8,525.43,678.73,526,779.46z"/>
<g>
	<path class="st0" d="M1137.85,800.47c-3.34,5.7-6.47,11.06-9.62,16.4c-9.15,15.51-18.32,31.02-27.48,46.54
		c-12.41,21.01-24.82,42.02-37.23,63.03c-3.25,5.5-6.56,10.96-9.69,16.52c-0.84,1.5-1.78,1.9-3.4,1.9
		c-39.38-0.05-78.75-0.06-118.13-0.06c-44.71,0-89.42,0.02-134.12,0.03c-6.16,0-12.31,0-18.65,0c0.28-1.33,1.18-2.09,1.84-2.95
		c23.97-31,47.95-61.98,71.93-92.97c12.01-15.52,24.03-31.04,36.01-46.59c1.07-1.39,2.27-1.89,4.03-1.88
		c37.47,0.06,74.94,0.08,112.41,0.08c42.72,0,85.45-0.03,128.17-0.05C1135.11,800.47,1136.29,800.47,1137.85,800.47z"/>
	<path class="st0" d="M749.04,629.27c-0.29-37.43,25.86-69.62,62.52-77c41.36-8.32,82.43,18.59,91.15,59.84
		c3,14.17,1.87,28.27-1.48,42.25c-5.44,22.69-16.11,42.98-28.93,62.24c-8.78,13.19-18.54,25.61-29.06,37.48
		c-5,5.64-10.15,11.13-15.22,16.69c-1,1.1-1.55,1.1-2.59,0.01c-18.51-19.23-35.83-39.41-49.96-62.15
		c-10.72-17.25-19.32-35.43-23.7-55.41C750.04,645.33,749.07,637.36,749.04,629.27z M797.64,617.24
		c0.02,16.17,12.83,29.13,28.78,29.14c16.45,0.01,29.35-12.73,29.39-29c0.03-16.29-12.88-29.16-29.24-29.14
		C810.52,588.26,797.62,601.19,797.64,617.24z"/>
	<path class="st0" d="M924.37,733.22c-3.82,4.93-7.57,9.78-11.32,14.63c-22.21,28.71-44.41,57.42-66.62,86.12
		c-2.61,3.37-5.26,6.71-7.82,10.11c-0.72,0.95-1.5,1.32-2.68,1.31c-25.59-0.03-51.19-0.02-76.78-0.03c-22.3,0-44.61-0.01-66.91-0.01
		c-2.12,0-4.25,0-6.82,0c2.15-2.75,4.08-5.24,6.02-7.71c16.43-20.87,32.86-41.73,49.3-62.59c10.65-13.51,21.33-26.99,31.91-40.54
		c1.2-1.53,1.68-1.38,2.71,0.04c13.49,18.59,28.83,35.59,44.98,51.89c4.46,4.5,8.27,4.53,12.71,0.03
		c16.12-16.32,31.31-33.44,44.68-52.12c0.68-0.96,1.42-1.42,2.63-1.42c14.4,0.02,28.79,0,43.19,0
		C923.76,732.94,923.96,733.07,924.37,733.22z"/>
	<path class="st0" d="M607.01,944.83c8.75-11.13,17.16-21.83,25.58-32.53c13.32-16.91,26.68-33.8,39.96-50.74
		c0.91-1.17,1.84-1.56,3.24-1.56c18.43,0.01,36.85-0.03,55.28-0.04c24.58-0.01,49.15,0,73.73,0c6.99,0,13.98,0,21.37,0
		c-1.25,1.69-2.31,3.19-3.43,4.64c-15.92,20.58-31.85,41.15-47.78,61.72c-4.47,5.77-8.97,11.53-13.39,17.33
		c-0.75,0.98-1.57,1.2-2.72,1.2c-33.35-0.03-66.71-0.02-100.06-0.03c-16.3,0-32.59,0-48.89,0
		C609.1,944.83,608.28,944.83,607.01,944.83z"/>
	<path class="st0" d="M902.09,785.92c11.91-15.39,23.51-30.37,35.11-45.34c1.63-2.1,3.33-4.16,4.85-6.34
		c0.71-1.02,1.52-1.3,2.68-1.3c14.4,0.02,28.79,0.01,43.19,0.01c9.8,0,19.6-0.01,29.41-0.01c19.49,0.01,38.98,0.05,58.47,0.05
		c19.35,0,38.69-0.03,58.04-0.04c14.15-0.01,28.31-0.01,42.46-0.01c0.36,0,0.72,0.06,1.37,0.11c-2.8,4.75-5.49,9.31-8.18,13.87
		c-7.37,12.5-14.77,25-22.09,37.53c-0.69,1.18-1.48,1.49-2.73,1.49c-40.29-0.04-80.58-0.07-120.87-0.08
		c-39.38,0-78.75,0.03-118.13,0.05C904.61,785.92,903.56,785.92,902.09,785.92z"/>
</g>
</svg>
