<?xml version="1.0" encoding="utf-8"?>
<!-- Generator: Adobe Illustrator 26.0.1, SVG Export Plug-In . SVG Version: 6.00 Build 0)  -->
<svg version="1.1" id="Layer_1" xmlns="http://www.w3.org/2000/svg" xmlns:xlink="http://www.w3.org/1999/xlink" x="0px" y="0px"
	 viewBox="0 0 1804.44 1984.25" style="enable-background:new 0 0 1804.44 1984.25;" xml:space="preserve">
<style type="text/css">
	.st0{fill:#2BB673;}
</style>
<path class="st0" d="M1147.68,1392.03l-258.1,447.02l-256.59-444.53c77.57,37.92,162.93,56.73,256.14,56.42
	C983.32,1450.65,1069.5,1431.01,1147.68,1392.03z"/>
<path class="st0" d="M475.1,1195.96c-115.76-115.76-173.35-254.58-172.79-416.5c0.53-161.91,58.16-300.18,172.79-414.81
	c114.61-114.61,253.15-172.52,415.64-173.62c162.47-1.12,301.57,56.19,417.33,171.95c114.61,114.61,171.37,253.15,170.26,415.64
	c-1.12,162.47-58.99,301.05-173.6,415.66c-114.63,114.63-252.93,172.22-414.83,172.77C727.98,1367.6,589.71,1310.56,475.1,1195.96z
	 M526,779.46c0.56,100.71,36.45,186.68,107.68,257.91c71.19,71.19,157.16,107.08,257.89,107.66
	c100.71,0.56,186.68-34.76,257.91-105.99c71.21-71.21,106.55-157.2,105.99-257.91c-0.58-100.73-36.47-186.7-107.66-257.89
	c-72.36-72.36-158.59-108.52-258.75-108.52s-185.85,35.63-257.06,106.85C560.78,592.8,525.43,678.73,526,779.46z"/>
<g>
	<path class="st0" d="M729.61,907.55c0-30.08,0.05-60.16-0.07-90.24c-0.01-3.73,1.03-6.43,3.73-9.11
		c51.27-50.99,102.47-102.04,153.57-153.2c2.9-2.91,4.42-2.69,7.17,0.07c51.26,51.27,102.6,102.46,154,153.59
		c2.55,2.54,3.48,5.12,3.47,8.65c-0.09,60.35-0.12,120.71,0.04,181.06c0.01,4.79-1.23,6.1-6.04,6.07
		c-39.14-0.2-78.29-0.2-117.43,0.01c-4.75,0.02-5.7-1.5-5.67-5.88c0.18-27.96-0.07-55.92,0.23-83.88c0.06-5.48-1.65-6.63-6.76-6.54
		c-17.16,0.31-34.32,0.29-51.48,0c-4.67-0.08-6.18,0.93-6.14,5.91c0.26,28.15-0.01,56.3,0.25,84.45c0.05,4.97-1.45,5.94-6.12,5.92
		c-38.95-0.19-77.9-0.2-116.85,0.01c-4.87,0.03-6.06-1.33-6.02-6.09C729.72,968.09,729.61,937.82,729.61,907.55z"/>
	<path class="st0" d="M986.82,650.14c0-8.61,0.17-17-0.08-25.37c-0.11-3.85,0.77-5.4,5.03-5.34c18.12,0.23,36.25,0.24,54.37-0.01
		c4.55-0.06,5.39,1.63,5.37,5.74c-0.16,28.34,0,56.68-0.17,85.03c-0.03,4.21,1.21,7.11,4.21,10.07
		c29.48,29.14,58.81,58.44,88.15,87.72c1.03,1.02,2.57,1.75,2.69,3.65c-1.73,1.17-3.69,0.54-5.5,0.55
		c-17.16,0.06-34.32-0.12-51.48,0.14c-4.46,0.07-7.44-1.42-10.51-4.48c-61.19-61.24-122.5-122.35-183.67-183.61
		c-3.56-3.57-5.44-4.06-9.31-0.18c-61.48,61.49-123.17,122.77-184.7,184.21c-3,3-5.96,4.08-10.11,4.04
		c-18.89-0.2-37.77-0.09-56.65-0.09c-0.79-2.52,1.3-3.22,2.36-4.28c83.43-83.16,166.92-166.27,250.29-249.49
		c2.93-2.93,4.26-2.05,6.62,0.32c29.14,29.21,58.36,58.34,87.6,87.45C982.75,647.6,983.79,649.62,986.82,650.14z"/>
</g>
</svg>
