<?xml version="1.0" encoding="utf-8"?>
<!-- Generator: Adobe Illustrator 19.0.0, SVG Export Plug-In . SVG Version: 6.00 Build 0)  -->
<svg version="1.1" id="Layer_1" xmlns="http://www.w3.org/2000/svg" xmlns:xlink="http://www.w3.org/1999/xlink" x="0px" y="0px"
	 viewBox="0 0 172 172" style="enable-background:new 0 0 172 172;" xml:space="preserve">
<style type="text/css">
	.st0{fill:#33AB66;}
</style>
<g id="XMLID_101_">
	<path id="XMLID_21_" class="st0" d="M142,134.4h-33.7c11.9-7.9,20-20.4,22.2-34.5C134.5,110.8,138.1,123.9,142,134.4z"/>
	<path id="XMLID_102_" class="st0" d="M78.9,134.8C52.1,135,30.3,113.5,30,86.7c0-0.2,0-0.5,0-0.7C29.9,73,35,60.6,44.2,51.5
		c18.7-18.9,49.2-19.1,68.2-0.4c0.1,0.1,0.3,0.3,0.4,0.4c18.8,19,18.8,49.7,0,68.7C104,129.6,91.7,134.8,78.9,134.8z M57.8,107.2
		c11.9,11.6,30.8,11.6,42.7,0c11.8-11.6,11.9-30.6,0.3-42.4c-0.1-0.1-0.2-0.2-0.3-0.3c-11.9-11.6-30.8-11.6-42.7,0
		C46,76.2,46,95.3,57.8,107.2C57.8,107.1,57.8,107.2,57.8,107.2z"/>
</g>
<g id="XMLID_14_">
</g>
<g id="XMLID_15_">
</g>
<g id="XMLID_16_">
</g>
<g id="XMLID_17_">
</g>
<g id="XMLID_18_">
</g>
<g id="XMLID_116_">
</g>
</svg>
